<svg width="73" height="72" viewBox="0 0 73 72" fill="none" xmlns="http://www.w3.org/2000/svg">
<path d="M70.1999 0.163094L2.19987 28.1631C1.39987 28.4831 0.919872 29.2831 0.999872 30.1631C1.07987 31.0431 1.63987 31.7631 2.51987 31.9231L33.3199 39.6031L40.9999 70.4031C41.2399 71.2031 41.9599 71.8431 42.7599 71.9231C42.8399 71.9231 42.8399 71.9231 42.9199 71.9231C43.7199 71.9231 44.4399 71.4431 44.7599 70.7231L72.7599 2.72309C73.0799 2.00309 72.9199 1.12309 72.3599 0.563094C71.8799 0.00309377 70.9999 -0.156906 70.1999 0.163094ZM43.4799 63.6031L36.6799 36.3231L67.3199 5.68309L43.4799 63.6031Z" fill="#212D3D"/>
</svg>
