<svg width="59" height="89" viewBox="0 0 59 89" fill="none" xmlns="http://www.w3.org/2000/svg">
<path d="M1.56337 18.8586C1.43407 18.9874 1.3315 19.1404 1.26152 19.3089C1.19154 19.4773 1.15552 19.6579 1.15552 19.8402C1.15552 20.0225 1.19154 20.2031 1.26152 20.3715C1.3315 20.54 1.43407 20.693 1.56337 20.8219L13.8426 33.0804C14.1035 33.3408 14.4574 33.487 14.8265 33.487C15.1955 33.487 15.5494 33.3408 15.8103 33.0804C16.0713 32.8201 16.2179 32.467 16.2179 32.0988C16.2179 31.7306 16.0713 31.3775 15.8103 31.1171L3.52415 18.8586C3.2636 18.6001 2.91114 18.4551 2.54376 18.4551C2.17638 18.4551 1.82392 18.6001 1.56337 18.8586Z" fill="#212D3D"/>
<path d="M41.2517 25.6226V8.50774C41.2517 8.13975 41.1052 7.78684 40.8444 7.52663C40.5836 7.26642 40.2299 7.12024 39.8611 7.12024C39.4923 7.12024 39.1386 7.26642 38.8778 7.52663C38.617 7.78684 38.4705 8.13975 38.4705 8.50774V25.6226C38.4705 25.9905 38.617 26.3435 38.8778 26.6037C39.1386 26.8639 39.4923 27.0101 39.8611 27.0101C40.2299 27.0101 40.5836 26.8639 40.8444 26.6037C41.1052 26.3435 41.2517 25.9905 41.2517 25.6226Z" fill="#212D3D"/>
<path d="M19.6901 1.04298C19.6445 0.866239 19.5644 0.700199 19.4544 0.554342C19.3444 0.408485 19.2068 0.285668 19.0492 0.192902C18.8917 0.100136 18.7174 0.0392389 18.5362 0.0136871C18.3551 -0.0118646 18.1707 -0.00157048 17.9936 0.0439818C17.8164 0.0895341 17.65 0.169452 17.5038 0.279174C17.3576 0.388895 17.2346 0.526271 17.1416 0.683457C17.0486 0.840644 16.9876 1.01456 16.962 1.19528C16.9364 1.376 16.9467 1.55999 16.9923 1.73673L21.1642 18.3867C21.2099 18.5635 21.2899 18.7295 21.3999 18.8754C21.5099 19.0212 21.6476 19.144 21.8051 19.2368C21.9627 19.3296 22.137 19.3905 22.3181 19.416C22.4992 19.4416 22.6836 19.4313 22.8608 19.3857C23.0379 19.3402 23.2043 19.2603 23.3505 19.1505C23.4967 19.0408 23.6198 18.9034 23.7128 18.7463C23.8057 18.5891 23.8668 18.4152 23.8924 18.2344C23.918 18.0537 23.9077 17.8697 23.862 17.693L19.6901 1.04298Z" fill="#212D3D"/>
<path d="M1.3547 50.4935C5.72127 56.7373 5.6865 59.5539 5.65869 62.2873C5.4501 82.1562 19.252 88.2959 27.4498 88.7885C28.0756 88.8232 28.6805 88.844 29.2854 88.844C33.0763 88.8889 36.8336 88.1312 40.3093 86.6208C43.7851 85.1105 46.9004 82.8818 49.4495 80.0819L54.0038 75.0731L54.0803 74.9829L56.34 72.4923C57.1401 71.6933 57.7096 70.694 57.9887 69.5994C58.2677 68.5048 58.246 67.3554 57.9258 66.2721C57.6057 65.1888 56.9988 64.2116 56.1692 63.4432C55.3395 62.6748 54.3177 62.1437 53.2111 61.9057C53.4283 61.1182 53.4717 60.2932 53.3383 59.4873C53.205 58.6815 52.898 57.9142 52.4386 57.2382C51.9793 56.5622 51.3784 55.9937 50.6775 55.5718C49.9765 55.15 49.1923 54.8849 48.3787 54.7948C48.6047 54.1717 48.7222 53.5148 48.7263 52.8522C48.7302 51.4054 48.2303 50.0021 47.3121 48.8823C46.3939 47.7624 45.1144 46.9955 43.6923 46.7126L51.2364 39.1576C51.8283 38.569 52.2967 37.8686 52.6144 37.0974C52.932 36.3261 53.0925 35.4995 53.0865 34.6657C53.0805 33.8319 52.9081 33.0077 52.5793 32.2411C52.2506 31.4745 51.7721 30.7809 51.1718 30.2009C50.5715 29.6208 49.8614 29.1658 49.0829 28.8625C48.3045 28.5593 47.4732 28.4137 46.6378 28.4344C45.8024 28.4551 44.9795 28.6417 44.2171 28.9832C43.4547 29.3246 42.7681 29.8142 42.1974 30.4233C33.9301 39.227 23.6534 49.2448 19.5997 50.8889C17.2356 51.8602 16.6655 51.104 14.8368 48.1139C13.5668 45.7713 11.8798 43.6791 9.85838 41.9396C7.4526 39.9901 4.62267 39.9346 2.27947 41.7869C-0.36967 43.8751 -0.752092 47.4688 1.3547 50.4935ZM51.8692 64.5489C52.3305 64.5471 52.7876 64.637 53.2137 64.8133C53.6399 64.9896 54.0266 65.2487 54.3514 65.5756C54.6792 65.907 54.938 66.2997 55.113 66.7313C55.288 67.1628 55.3758 67.6246 55.3713 68.0902C55.3668 68.5557 55.27 69.0157 55.0867 69.4438C54.9033 69.8719 54.6369 70.2595 54.3028 70.5845L52.0986 73.0057C51.5083 73.2839 50.8468 73.3751 50.2029 73.2672C49.5591 73.1594 48.9638 72.8575 48.4969 72.4021L48.3717 72.2703C47.8031 71.7139 47.4614 70.967 47.4126 70.1738C47.3638 69.3807 47.6114 68.5976 48.1075 67.976L51.5841 64.5072L51.8692 64.5489ZM49.7832 58.3468C50.2981 58.8562 50.6013 59.5407 50.6322 60.2636C50.6632 60.9864 50.4196 61.6942 49.9501 62.2456C49.892 62.2988 49.8385 62.3568 49.7902 62.4191L45.7991 66.4012C45.2354 66.6069 44.6253 66.6509 44.0379 66.5283C43.4505 66.4057 42.9092 66.1213 42.4755 65.7074L42.3086 65.5409C41.7613 64.9738 41.4397 64.2273 41.4038 63.4408C41.368 62.6543 41.6204 61.8817 42.1139 61.2674C42.6702 60.8373 44.9995 58.9989 46.2371 57.9374C46.7879 57.6047 47.4339 57.4643 48.0735 57.5384C48.713 57.6125 49.3097 57.8969 49.7693 58.3468H49.7832ZM44.916 50.3617C45.2437 50.6857 45.5034 51.0716 45.6801 51.4968C45.8568 51.922 45.9468 52.3781 45.9451 52.8384C45.8543 53.9654 45.3312 55.0141 44.4849 55.766C43.6367 56.5014 41.808 57.9652 40.4591 59.0197C39.8839 59.1835 39.2752 59.1901 38.6966 59.0387C38.1181 58.8874 37.5909 58.5837 37.1703 58.1594L37.0799 58.0693C36.4468 57.437 36.0912 56.5799 36.0912 55.6862C36.0912 54.7925 36.4468 53.9354 37.0799 53.3032L40.3478 50.0426C41.0175 49.5356 41.8485 49.2879 42.6871 49.3453C43.5257 49.4027 44.3151 49.7613 44.9091 50.3547L44.916 50.3617ZM4.0108 43.9306C5.3458 42.8761 6.68775 42.9178 8.10619 44.0624C9.87598 45.6021 11.3508 47.4498 12.4588 49.5153C13.1039 50.7196 13.9136 51.8287 14.8646 52.8106C14.8906 52.849 14.9184 52.886 14.9481 52.9216C15.0663 53.0465 17.7293 55.9533 15.0176 60.1783C14.8349 60.488 14.7798 60.8563 14.8638 61.2058C14.9478 61.5552 15.1644 61.8585 15.4681 62.0518C15.7717 62.2451 16.1387 62.3133 16.4917 62.242C16.8448 62.1708 17.1563 61.9656 17.3608 61.6698C18.1282 60.5722 18.6411 59.318 18.8624 57.998C19.0836 56.6781 19.0077 55.3256 18.6402 54.0386C19.3289 53.9445 20.0022 53.7602 20.6427 53.4905C26.1148 51.2497 38.9433 37.9644 44.2138 32.3519C44.5339 32.0074 44.9209 31.7314 45.3511 31.5406C45.7814 31.3498 46.2461 31.2482 46.7169 31.2419C47.1883 31.2346 47.6565 31.3217 48.0936 31.498C48.5307 31.6744 48.9279 31.9364 49.2617 32.2687C49.5887 32.5941 49.848 32.9807 50.025 33.4063C50.202 33.8319 50.293 34.2881 50.293 34.7488C50.293 35.2096 50.202 35.6658 50.025 36.0914C49.848 36.517 49.5887 36.9036 49.2617 37.229L35.1052 51.326C34.53 51.8971 34.0736 52.5761 33.7621 53.3237C33.4507 54.0714 33.2903 54.8731 33.2903 55.6827C33.2903 56.4924 33.4507 57.2941 33.7621 58.0418C34.0736 58.7894 34.53 59.4684 35.1052 60.0395L35.1817 60.1158C36.1393 61.0739 37.3894 61.6866 38.7347 61.8571C38.4923 62.8583 38.5107 63.9048 38.7882 64.8969C39.0657 65.889 39.593 66.7938 40.32 67.5251L40.3756 67.5736L40.4313 67.6291C41.5593 68.7445 43.0845 69.3682 44.6727 69.3635C44.5777 70.2501 44.6833 71.1467 44.9817 71.9872C45.2801 72.8276 45.7638 73.5906 46.397 74.2197L46.5013 74.3377C47.3058 75.1384 48.3205 75.6963 49.4286 75.9472L47.3427 78.2435L47.287 78.3059C44.7974 80.9801 41.7369 83.0614 38.3319 84.3956C34.9269 85.7298 31.2648 86.2827 27.6167 86.0135C24.0339 85.7035 20.5841 84.5117 17.5763 82.5447C17.7919 82.5447 18.0144 82.5447 18.2369 82.5447H18.8279C22.3045 82.3227 25.482 80.2207 28.3189 76.301C28.5237 76.0016 28.6029 75.6342 28.5396 75.2774C28.4764 74.9205 28.2757 74.6024 27.9805 74.3913C27.6853 74.1801 27.319 74.0926 26.96 74.1474C26.6009 74.2022 26.2776 74.395 26.0592 74.6846C23.7438 77.9036 21.2615 79.6241 18.6749 79.7975C15.0663 80.0334 12.292 77.1543 12.2503 77.1127C12.1888 77.0486 12.1212 76.9905 12.0486 76.9392C9.87228 73.5121 8.37736 68.8085 8.44689 62.3081C8.48861 58.6381 8.15486 55.322 3.64228 48.884C2.59236 47.4133 2.30728 45.2904 4.0108 43.9306Z" fill="#212D3D"/>
<path d="M25.6629 28.2796L22.5896 28.7236L24.8146 30.8881L24.2862 33.9406L27.0326 32.4976L29.7791 33.9406L29.2507 30.8881L31.4757 28.7236L28.4024 28.2796L27.0326 25.5046L25.6629 28.2796Z" fill="#212D3D"/>
<path d="M30.1337 11.5949L31.0723 13.7039L32.1848 11.6712L34.4863 11.4354L32.894 9.75649L33.3808 7.49487L31.2879 8.48693L29.2784 7.32837L29.5774 9.62468L27.853 11.1717L30.1337 11.5949Z" fill="#212D3D"/>
<path d="M11.6315 10.6653L9.95579 9.07666L9.70548 11.373L7.66821 12.476L9.78196 13.4195L10.2061 15.695L11.7566 13.9745L14.0581 14.2798L12.897 12.2748L13.8982 10.1936L11.6315 10.6653Z" fill="#212D3D"/>
</svg>
