<svg width="25" height="25" viewBox="0 0 25 25" fill="none" xmlns="http://www.w3.org/2000/svg">
<path d="M21.6311 0H3.36892C1.50842 0 0.00012207 1.50824 0.00012207 3.3688V21.6311C0.00012207 23.4916 1.50836 24.9999 3.36892 24.9999H12.3757L12.3911 16.0663H10.0701C9.76851 16.0663 9.5237 15.8224 9.52254 15.5208L9.51141 12.6411C9.51025 12.3378 9.75579 12.0914 10.0591 12.0914H12.3758V9.30886C12.3758 6.0798 14.3479 4.32156 17.2284 4.32156H19.5921C19.8945 4.32156 20.1398 4.56673 20.1398 4.86921V7.29736C20.1398 7.59972 19.8947 7.84484 19.5924 7.84502L18.1419 7.84569C16.5753 7.84569 16.272 8.59009 16.272 9.68253V12.0914H19.7142C20.0422 12.0914 20.2966 12.3778 20.258 12.7035L19.9167 15.5832C19.884 15.8588 19.6503 16.0664 19.3729 16.0664H16.2874L16.272 25H21.6312C23.4917 25 24.9999 23.4918 24.9999 21.6313V3.3688C24.9999 1.50824 23.4916 0 21.6311 0Z" fill="#475993"/>
</svg>
