<svg width="80" height="79" viewBox="0 0 80 79" fill="none" xmlns="http://www.w3.org/2000/svg">
<path d="M7.875 44.75C10.6709 44.75 12.9375 42.4834 12.9375 39.6875C12.9375 36.8916 10.6709 34.625 7.875 34.625C5.07906 34.625 2.8125 36.8916 2.8125 39.6875C2.8125 42.4834 5.07906 44.75 7.875 44.75Z" stroke="#212D3D" stroke-width="5" stroke-miterlimit="10" stroke-linecap="round"/>
<path d="M72.125 55.3125C74.9209 55.3125 77.1875 53.0459 77.1875 50.25C77.1875 47.4541 74.9209 45.1875 72.125 45.1875C69.3291 45.1875 67.0625 47.4541 67.0625 50.25C67.0625 53.0459 69.3291 55.3125 72.125 55.3125Z" stroke="#212D3D" stroke-width="5" stroke-miterlimit="10" stroke-linecap="round"/>
<path d="M72.125 34.1875C74.9209 34.1875 77.1875 31.9209 77.1875 29.125C77.1875 26.3291 74.9209 24.0625 72.125 24.0625C69.3291 24.0625 67.0625 26.3291 67.0625 29.125C67.0625 31.9209 69.3291 34.1875 72.125 34.1875Z" stroke="#212D3D" stroke-width="5" stroke-miterlimit="10" stroke-linecap="round"/>
<path d="M72.125 13.125C74.9209 13.125 77.1875 10.8584 77.1875 8.0625C77.1875 5.26656 74.9209 3 72.125 3C69.3291 3 67.0625 5.26656 67.0625 8.0625C67.0625 10.8584 69.3291 13.125 72.125 13.125Z" stroke="#212D3D" stroke-width="5" stroke-miterlimit="10" stroke-linecap="round"/>
<path d="M72.125 76.375C74.9209 76.375 77.1875 74.1084 77.1875 71.3125C77.1875 68.5166 74.9209 66.25 72.125 66.25C69.3291 66.25 67.0625 68.5166 67.0625 71.3125C67.0625 74.1084 69.3291 76.375 72.125 76.375Z" stroke="#212D3D" stroke-width="5" stroke-miterlimit="10" stroke-linecap="round"/>
<path d="M7.875 39.9375C8.01307 39.9375 8.125 39.8256 8.125 39.6875C8.125 39.5494 8.01307 39.4375 7.875 39.4375C7.73693 39.4375 7.625 39.5494 7.625 39.6875C7.625 39.8256 7.73693 39.9375 7.875 39.9375Z" stroke="#212D3D" stroke-width="5" stroke-miterlimit="10" stroke-linecap="round"/>
<path d="M72.25 50.3125C72.3881 50.3125 72.5 50.2006 72.5 50.0625C72.5 49.9244 72.3881 49.8125 72.25 49.8125C72.1119 49.8125 72 49.9244 72 50.0625C72 50.2006 72.1119 50.3125 72.25 50.3125Z" stroke="#212D3D" stroke-width="5" stroke-miterlimit="10" stroke-linecap="round"/>
<path d="M61.5 8.0625H27.6875V71.3125H62.125" stroke="#212D3D" stroke-width="5" stroke-miterlimit="10" stroke-linecap="round"/>
<path d="M28.0625 29.125H62.125" stroke="#212D3D" stroke-width="5" stroke-miterlimit="10" stroke-linecap="round"/>
<path d="M13.375 39.9375H27.6875V50.8125H62.125" stroke="#212D3D" stroke-width="5" stroke-miterlimit="10" stroke-linecap="round"/>
<path d="M60.375 47.125L64 50.75L60.25 54.4375" stroke="#212D3D" stroke-width="5" stroke-miterlimit="10" stroke-linecap="square"/>
<path d="M60.375 25.625L64 29.3125L60.25 33" stroke="#212D3D" stroke-width="5" stroke-miterlimit="10" stroke-linecap="square"/>
<path d="M60.375 4.1875L64 7.8125L60.25 11.5" stroke="#212D3D" stroke-width="5" stroke-miterlimit="10" stroke-linecap="square"/>
<path d="M60.375 67.875L64 71.5L60.25 75.1875" stroke="#212D3D" stroke-width="5" stroke-miterlimit="10" stroke-linecap="square"/>
<path d="M72.25 29.5625C72.3881 29.5625 72.5 29.4506 72.5 29.3125C72.5 29.1744 72.3881 29.0625 72.25 29.0625C72.1119 29.0625 72 29.1744 72 29.3125C72 29.4506 72.1119 29.5625 72.25 29.5625Z" stroke="#212D3D" stroke-width="5" stroke-miterlimit="10" stroke-linecap="round"/>
<path d="M72.25 8.125C72.3881 8.125 72.5 8.01307 72.5 7.875C72.5 7.73693 72.3881 7.625 72.25 7.625C72.1119 7.625 72 7.73693 72 7.875C72 8.01307 72.1119 8.125 72.25 8.125Z" stroke="#212D3D" stroke-width="5" stroke-miterlimit="10" stroke-linecap="round"/>
<path d="M72.25 71.75C72.3881 71.75 72.5 71.6381 72.5 71.5C72.5 71.3619 72.3881 71.25 72.25 71.25C72.1119 71.25 72 71.3619 72 71.5C72 71.6381 72.1119 71.75 72.25 71.75Z" stroke="#212D3D" stroke-width="5" stroke-miterlimit="10" stroke-linecap="round"/>
<path d="M22.5625 36.5L26.1875 40.125L22.5 43.8125" stroke="#212D3D" stroke-width="5" stroke-miterlimit="10" stroke-linecap="square"/>
</svg>
