<svg width="25" height="24" viewBox="0 0 25 24" fill="none" xmlns="http://www.w3.org/2000/svg">
<path d="M17.5524 0.764648H7.44764C3.34099 0.764648 0 3.82717 0 7.59153V16.854C0 20.6184 3.34099 23.6809 7.44764 23.6809H17.5524C21.659 23.6809 25 20.6184 25 16.854V7.59153C25 3.82717 21.659 0.764648 17.5524 0.764648ZM22.485 16.854C22.485 19.3512 20.2766 21.3755 17.5524 21.3755H7.44764C4.72344 21.3755 2.515 19.3512 2.515 16.854V7.59153C2.515 5.09435 4.72344 3.07002 7.44764 3.07002H17.5524C20.2766 3.07002 22.485 5.09435 22.485 7.59153V16.854Z" fill="url(#paint0_linear_2:3232)"/>
<path d="M12.4999 6.2959C8.93465 6.2959 6.03406 8.95481 6.03406 12.223C6.03406 15.4912 8.93465 18.1501 12.4999 18.1501C16.0652 18.1501 18.9658 15.4912 18.9658 12.223C18.9658 8.95477 16.0652 6.2959 12.4999 6.2959ZM12.4999 15.8447C10.3179 15.8447 8.54905 14.2233 8.54905 12.223C8.54905 10.2228 10.318 8.60135 12.4999 8.60135C14.682 8.60135 16.4508 10.2228 16.4508 12.223C16.4508 14.2232 14.6819 15.8447 12.4999 15.8447Z" fill="url(#paint1_linear_2:3232)"/>
<path d="M18.9785 7.7605C19.8342 7.7605 20.5278 7.12472 20.5278 6.34045C20.5278 5.55619 19.8342 4.92041 18.9785 4.92041C18.1228 4.92041 17.4291 5.55619 17.4291 6.34045C17.4291 7.12472 18.1228 7.7605 18.9785 7.7605Z" fill="url(#paint2_linear_2:3232)"/>
<defs>
<linearGradient id="paint0_linear_2:3232" x1="12.5" y1="23.6142" x2="12.5" y2="0.942643" gradientUnits="userSpaceOnUse">
<stop stop-color="#E09B3D"/>
<stop offset="0.3" stop-color="#C74C4D"/>
<stop offset="0.6" stop-color="#C21975"/>
<stop offset="1" stop-color="#7024C4"/>
</linearGradient>
<linearGradient id="paint1_linear_2:3232" x1="12.4999" y1="23.6148" x2="12.4999" y2="0.942558" gradientUnits="userSpaceOnUse">
<stop stop-color="#E09B3D"/>
<stop offset="0.3" stop-color="#C74C4D"/>
<stop offset="0.6" stop-color="#C21975"/>
<stop offset="1" stop-color="#7024C4"/>
</linearGradient>
<linearGradient id="paint2_linear_2:3232" x1="18.9785" y1="23.6122" x2="18.9785" y2="0.943456" gradientUnits="userSpaceOnUse">
<stop stop-color="#E09B3D"/>
<stop offset="0.3" stop-color="#C74C4D"/>
<stop offset="0.6" stop-color="#C21975"/>
<stop offset="1" stop-color="#7024C4"/>
</linearGradient>
</defs>
</svg>
