<svg width="60" height="60" viewBox="0 0 60 60" fill="none" xmlns="http://www.w3.org/2000/svg">
<g clip-path="url(#clip0_2:3442)">
<path d="M29.7029 11.1175C26.9305 13.0674 23.7883 15.2775 22.1047 18.9339C19.1804 25.313 28.0885 32.2713 28.4693 32.5644C28.5578 32.6324 28.6637 32.6664 28.7693 32.6664C28.8814 32.6664 28.9937 32.6281 29.0849 32.5517C29.2617 32.4038 29.3119 32.1526 29.2057 31.9479C29.1735 31.8858 25.9759 25.6749 26.0947 21.2191C26.1368 19.6672 28.3086 17.9067 30.6079 16.0428C32.7137 14.3356 35.1008 12.4008 36.4975 10.1373C39.5636 5.15491 36.1558 0.255746 36.121 0.206761C35.9856 0.0166826 35.7358 -0.0521067 35.5221 0.0415264C35.3087 0.135746 35.1905 0.366489 35.2392 0.594654C35.2462 0.627115 35.9088 3.86689 34.0648 7.20476C33.3052 8.58406 31.6359 9.75805 29.7029 11.1175Z" fill="white"/>
<path d="M41.3834 13.3147C41.579 13.1674 41.6365 12.8987 41.5182 12.6843C41.3997 12.4698 41.1419 12.3752 40.9129 12.4622C40.442 12.6413 29.3798 16.9054 29.3798 22.0575C29.3798 25.6092 30.8969 27.4853 32.0047 28.8555C32.4392 29.3929 32.8143 29.857 32.9379 30.2532C33.286 31.395 32.4615 33.4586 32.1147 34.1576C32.0147 34.3584 32.0637 34.6019 32.2338 34.7486C32.3256 34.828 32.4404 34.8683 32.5552 34.8683C32.6529 34.8683 32.7511 34.8392 32.836 34.7802C33.0262 34.648 37.4845 31.4959 36.6849 27.6982C36.387 26.2546 35.6777 25.1999 35.0518 24.2692C34.0822 22.8272 33.3819 21.7857 34.4443 19.8619C35.689 17.618 41.3264 13.3574 41.3834 13.3147Z" fill="white"/>
<path d="M12.5882 34.9496C12.3986 35.5174 12.4881 36.0806 12.8468 36.5788C14.046 38.2437 18.2937 39.1604 24.808 39.1604C24.8083 39.1604 24.8086 39.1604 24.8088 39.1604C25.6914 39.1604 26.6233 39.143 27.5778 39.1088C37.9929 38.736 41.8559 35.4913 42.0153 35.3534C42.1889 35.2031 42.2353 34.9527 42.1274 34.7502C42.0194 34.5479 41.7865 34.4461 41.564 34.5074C37.8959 35.5089 31.0466 35.8645 26.2958 35.8645C20.9798 35.8645 18.2725 35.4815 17.6097 35.1987C17.9498 34.7317 20.0474 33.8978 22.6468 33.3865C22.8952 33.3378 23.066 33.1083 23.0414 32.8564C23.0168 32.6044 22.8051 32.4122 22.5519 32.4122C21.0282 32.4122 13.387 32.5346 12.5882 34.9496Z" fill="white"/>
<path d="M47.4391 31.6078C45.2909 31.6078 43.2538 32.6845 43.1681 32.7301C42.9694 32.8365 42.8686 33.0643 42.9231 33.2832C42.9779 33.5018 43.1744 33.6554 43.3997 33.6556C43.4453 33.6556 47.982 33.6928 48.3929 36.2849C48.7569 38.5211 44.1004 42.1443 42.2754 43.3518C42.0783 43.4822 42.0018 43.7342 42.0933 43.9521C42.1713 44.1376 42.3518 44.2537 42.5466 44.2537C42.5806 44.2537 42.6151 44.2501 42.6493 44.2429C43.0824 44.1502 53.2438 41.911 52.1694 35.9947C51.514 32.3689 49.2351 31.6078 47.4391 31.6078Z" fill="white"/>
<path d="M40.4705 42.6278C40.5059 42.4383 40.427 42.2455 40.2693 42.1347L37.8328 40.4281C37.714 40.3449 37.5639 40.3188 37.4244 40.3557C37.399 40.3622 34.8511 41.032 31.1519 41.4428C29.6838 41.6074 28.0394 41.6944 26.3962 41.6944C22.698 41.6944 20.2799 41.2598 19.9278 40.9411C19.8812 40.8515 19.8959 40.8109 19.9042 40.7883C19.9682 40.6104 20.3111 40.399 20.5321 40.3153C20.7762 40.2249 20.9078 39.9599 20.8319 39.7109C20.7562 39.4617 20.4994 39.3151 20.2461 39.3759C17.802 39.9657 16.6069 40.7905 16.6939 41.8272C16.8483 43.6655 21.106 44.6089 24.7054 44.8583C25.2231 44.8937 25.7829 44.9116 26.3689 44.9116C26.3693 44.9116 26.3695 44.9116 26.3699 44.9116C32.3551 44.9116 40.0281 43.0337 40.1048 43.0146C40.2921 42.9689 40.435 42.8176 40.4705 42.6278Z" fill="white"/>
<path d="M22.1019 46.5728C22.2865 46.4528 22.3683 46.2246 22.3028 46.0145C22.2375 45.8044 22.041 45.6663 21.8202 45.6692C21.4927 45.6779 18.6152 45.8077 18.4138 47.6398C18.3529 48.1873 18.5097 48.6875 18.8801 49.1264C19.9132 50.3508 22.7021 51.0785 27.4045 51.3511C27.9608 51.3845 28.5258 51.4013 29.0842 51.4013C35.0626 51.4013 39.0889 49.5294 39.2576 49.4497C39.421 49.3724 39.5288 49.2117 39.5385 49.0312C39.5481 48.8508 39.4579 48.6796 39.3037 48.5852L36.2246 46.7055C36.1177 46.6404 35.9899 46.6188 35.868 46.6438C35.8486 46.6479 33.8935 47.0533 30.9431 47.4539C30.3848 47.5298 29.6856 47.5684 28.8653 47.5684C25.918 47.5684 22.6398 47.0869 22.0111 46.7715C22.002 46.7127 22.0136 46.6379 22.1019 46.5728Z" fill="white"/>
<path d="M26.2979 57.053C39.9918 57.0414 47.3415 54.6061 48.7574 53.0736C49.2586 52.5315 49.3127 52.0182 49.2702 51.6829C49.1649 50.8579 48.4134 50.3529 48.3282 50.298C48.1227 50.1658 47.8468 50.2004 47.6865 50.3853C47.5265 50.5702 47.5228 50.8405 47.6833 51.0253C47.7697 51.1364 47.8196 51.3223 47.5671 51.5751C47.0011 52.1038 41.2923 53.7084 31.787 54.1905C30.4849 54.2581 29.1192 54.2926 27.7281 54.2928C19.2176 54.2928 12.9891 53.127 12.1715 52.4478C12.4866 51.995 14.6898 51.2716 17.0327 50.8624C17.2967 50.8163 17.4751 50.5675 17.4342 50.3027C17.3933 50.038 17.1492 49.8557 16.8824 49.8903C16.8163 49.8993 16.592 49.9127 16.3323 49.9286C12.4665 50.1647 7.99916 50.6907 7.76607 52.6826C7.69529 53.2895 7.87565 53.8405 8.30233 54.32C9.34635 55.4931 12.3472 57.0527 26.2975 57.0527C26.2977 57.053 26.2977 57.053 26.2979 57.053Z" fill="white"/>
<path d="M51.447 53.5054C51.2534 53.4158 51.0247 53.4611 50.8803 53.6169C50.8603 53.6386 48.8014 55.7915 42.6111 57.0557C40.2412 57.5305 35.7927 57.7714 29.3892 57.7714C22.9737 57.7714 16.8691 57.5189 16.8083 57.5164C16.5533 57.5039 16.3352 57.6893 16.3005 57.9404C16.2657 58.1911 16.4274 58.4276 16.6736 58.4862C16.7371 58.5012 23.1348 60 31.8821 60C36.0776 60 40.1602 59.6594 44.0167 58.987C51.2075 57.7264 51.7109 54.1608 51.7289 54.0096C51.7539 53.7983 51.6403 53.5949 51.447 53.5054Z" fill="white"/>
</g>
<defs>
<clipPath id="clip0_2:3442">
<rect width="60" height="60" fill="white"/>
</clipPath>
</defs>
</svg>
