<svg width="50" height="19" viewBox="0 0 50 19" fill="none" xmlns="http://www.w3.org/2000/svg">
<path d="M15.5807 10.467C15.8213 9.9865 15.9589 9.46011 15.9847 8.92218C16.0104 8.38424 15.9237 7.84686 15.7302 7.3451C15.5367 6.84333 15.2408 6.38844 14.8617 6.01011C14.4826 5.63179 14.0289 5.33852 13.5301 5.14944C13.3396 5.78357 13.0131 6.36742 12.5739 6.85941C13.0004 6.94699 13.3837 7.18104 13.659 7.52186C13.9342 7.86267 14.0844 8.28926 14.0841 8.72926C14.0837 9.16927 13.9328 9.5956 13.657 9.93594C13.3811 10.2763 12.9974 10.5097 12.5707 10.5965C12.1441 10.6834 11.7009 10.6183 11.3163 10.4125C10.9317 10.2066 10.6294 9.87251 10.4606 9.46694C10.2919 9.06136 10.2671 8.60925 10.3904 8.18729C10.5138 7.76533 10.7777 7.3995 11.1374 7.15186C11.7144 6.81767 12.1943 6.33575 12.5287 5.75455C12.8631 5.17334 13.0402 4.51336 13.0423 3.84098C13.0443 3.1686 12.8712 2.50752 12.5404 1.92424C12.2096 1.34096 11.7327 0.856038 11.1577 0.518254C10.5827 0.18047 9.92982 0.00173052 9.26481 1.25029e-05C8.59979 -0.00170551 7.94606 0.173659 7.36935 0.508467C6.79264 0.843276 6.31329 1.32572 5.97952 1.90729C5.64575 2.48885 5.46932 3.14903 5.46798 3.82141C5.46796 3.98082 5.47769 4.14008 5.49712 4.29828C6.14179 4.17568 6.80537 4.19953 7.4398 4.36812C7.31622 3.93455 7.3481 3.47078 7.52983 3.05867C7.71155 2.64656 8.03143 2.31261 8.43299 2.11577C8.83456 1.91893 9.292 1.87187 9.72455 1.98288C10.1571 2.09389 10.537 2.35584 10.7971 2.72249C11.0572 3.08914 11.1808 3.53691 11.1461 3.98676C11.1115 4.43661 10.9207 4.85962 10.6076 5.1811C10.2944 5.50259 9.87905 5.70189 9.43471 5.74381C8.99037 5.78574 8.54567 5.6676 8.1791 5.41025C7.6284 5.0399 6.97167 4.86488 6.31197 4.91264C5.42493 4.9171 4.56758 5.23623 3.88943 5.81439C3.21129 6.39255 2.75539 7.19305 2.60123 8.07629C2.44708 8.95952 2.60445 9.86945 3.04591 10.6474C3.48736 11.4253 4.18489 12.0219 5.01684 12.333C5.52945 12.5279 5.95677 12.9008 6.22233 13.385C6.4879 13.8693 6.57437 14.4333 6.4663 14.9761C6.35822 15.5189 6.06264 16.0051 5.63244 16.3477C5.20224 16.6904 4.6655 16.8671 4.11825 16.8462C3.57101 16.8253 3.04897 16.6082 2.64554 16.2337C2.24211 15.8593 1.98363 15.3519 1.91633 14.8024C1.84904 14.2529 1.97733 13.6971 2.27824 13.2345C2.57916 12.7719 3.03306 12.4326 3.55875 12.2774C3.03422 11.8595 2.60839 11.3286 2.31219 10.7235C1.45271 11.1622 0.767963 11.8856 0.372148 12.773C-0.0236673 13.6604 -0.106626 14.6582 0.137107 15.5999C0.38084 16.5417 0.936532 17.3705 1.71151 17.9482C2.48649 18.5258 3.4339 18.8174 4.39576 18.7742C5.35761 18.731 6.27576 18.3558 6.99709 17.711C7.71841 17.0662 8.19931 16.1909 8.35959 15.231C8.51986 14.2711 8.34982 13.2847 7.87782 12.4362C7.40582 11.5878 6.66039 10.9285 5.76585 10.5685C5.43008 10.4662 5.12901 10.2716 4.89621 10.0065C4.66341 9.74129 4.50804 9.41594 4.44742 9.06671C4.38681 8.71747 4.42333 8.35808 4.55291 8.0286C4.68249 7.69912 4.90005 7.41252 5.18131 7.20074C5.46257 6.98896 5.79649 6.86034 6.14582 6.82922C6.49515 6.7981 6.84617 6.86571 7.15972 7.02449C7.47328 7.18328 7.73705 7.42701 7.92161 7.7285C8.10618 8.02999 8.20429 8.37739 8.20501 8.73196C8.20278 9.11052 8.09088 9.48013 7.88315 9.79508C7.67541 10.11 7.38095 10.3565 7.03616 10.5041C7.57156 10.8907 8.02481 11.382 8.36906 11.9489C8.70454 11.7285 9.00357 11.456 9.25514 11.1414C9.765 11.779 10.4637 12.2344 11.2486 12.4406C12.0334 12.6468 12.863 12.5931 13.6154 12.2872C14.1358 12.1232 14.6968 12.1501 15.1995 12.3632C15.7022 12.5764 16.1144 12.962 16.3635 13.4523C16.6126 13.9426 16.6826 14.506 16.5612 15.0433C16.4397 15.5806 16.1347 16.0573 15.6997 16.3896C15.2647 16.7218 14.7278 16.8881 14.1834 16.8594C13.639 16.8306 13.1222 16.6085 12.7238 16.2322C12.3255 15.8559 12.0713 15.3496 12.006 14.8024C11.9406 14.2552 12.0684 13.7023 12.3667 13.2409C11.6996 13.266 11.0355 13.1384 10.424 12.8677C10.2653 13.1711 10.1002 13.959 10.1002 14.5199C10.0994 15.3062 10.3142 16.0774 10.7206 16.7479C11.127 17.4184 11.7092 17.9619 12.4025 18.3181C13.0959 18.6744 13.8733 18.8294 14.6485 18.766C15.4238 18.7027 16.1665 18.4234 16.7942 17.9591C17.422 17.4949 17.9102 16.8639 18.2048 16.1361C18.4995 15.4084 18.5889 14.6123 18.4632 13.8363C18.3375 13.0603 18.0016 12.3346 17.4928 11.7399C16.984 11.1451 16.3222 10.7045 15.5807 10.467Z" fill="#212D3D"/>
<path d="M29.1181 13.7929C29.0438 13.7918 28.9717 13.7673 28.912 13.7226C28.8522 13.678 28.8079 13.6155 28.7851 13.544C28.6931 13.2679 28.5984 12.9939 28.501 12.7222C28.3749 12.3698 28.2532 12.0085 28.1359 11.6383H24.448C24.3301 12.0085 24.2101 12.372 24.0879 12.7289C23.9945 13.0025 23.9022 13.2748 23.8112 13.5455C23.7884 13.6164 23.7442 13.6784 23.6849 13.7227C23.6256 13.7671 23.5541 13.7916 23.4803 13.7929H22.577C22.5192 13.7912 22.4627 13.7757 22.412 13.7477C22.3613 13.7196 22.318 13.6798 22.2854 13.6315C22.2529 13.5832 22.2322 13.5278 22.225 13.4699C22.2178 13.4119 22.2243 13.3531 22.244 13.2981C22.5103 12.5105 22.7654 11.7722 23.0093 11.083C23.3014 10.2551 23.5887 9.47091 23.871 8.73057C24.1534 7.99022 24.4324 7.28532 24.7079 6.61586C24.9747 5.97053 25.2493 5.33331 25.5317 4.70421C25.5404 4.68272 25.5551 4.66428 25.5741 4.65116C25.593 4.63803 25.6153 4.63081 25.6383 4.63038H27.0032C27.0262 4.63081 27.0485 4.63803 27.0674 4.65116C27.0864 4.66428 27.1011 4.68272 27.1098 4.70421C27.3922 5.33331 27.667 5.97053 27.9343 6.61586C28.2113 7.28581 28.4905 7.99072 28.7719 8.73057C29.0533 9.47042 29.343 10.2546 29.641 11.083C29.8878 11.7722 30.1451 12.5105 30.4129 13.2981C30.4325 13.3531 30.439 13.4119 30.4318 13.4699C30.4246 13.5278 30.4039 13.5832 30.3714 13.6315C30.3389 13.6798 30.2955 13.7196 30.2448 13.7477C30.1942 13.7757 30.1376 13.7912 30.0799 13.7929H29.1181ZM26.454 6.80341C26.4417 6.76984 26.4194 6.7409 26.3903 6.72046C26.3612 6.70003 26.3266 6.68908 26.2912 6.68908C26.2557 6.68908 26.2212 6.70003 26.192 6.72046C26.1629 6.7409 26.1407 6.76984 26.1283 6.80341C25.9769 7.18392 25.8109 7.61808 25.6303 8.1059C25.3825 8.77585 25.1242 9.5029 24.8555 10.2871H27.7269C27.4582 9.5029 27.1979 8.77142 26.9462 8.09261C26.7646 7.60332 26.6006 7.17358 26.454 6.80341ZM41.6482 6.70447C42.1521 6.70447 42.5762 6.77068 42.9204 6.90309C43.2367 7.01623 43.5202 7.20702 43.7456 7.45835C43.9563 7.70833 44.1064 8.00468 44.1837 8.32372C44.275 8.68883 44.3194 9.0643 44.3159 9.44088V13.3255C44.3166 13.4111 44.2879 13.4943 44.2346 13.5608C44.1813 13.6274 44.1068 13.6731 44.0238 13.6902C43.8164 13.7296 43.5581 13.7737 43.249 13.8224C42.7171 13.9013 42.18 13.9389 41.6424 13.9346C41.2812 13.9373 40.9209 13.8974 40.5689 13.8157C40.2664 13.7481 39.9811 13.6176 39.7312 13.4325C39.4969 13.2525 39.3107 13.0162 39.1894 12.7451C39.0499 12.4156 38.9833 12.0593 38.9944 11.701C38.9829 11.3528 39.0583 11.0072 39.2135 10.6961C39.3565 10.4288 39.5618 10.2007 39.8116 10.0316C40.0781 9.85389 40.3754 9.72864 40.6879 9.66239C41.0292 9.58656 41.3777 9.54892 41.7271 9.55016C41.9038 9.55085 42.0804 9.56195 42.2558 9.58339C42.4551 9.60823 42.6527 9.64572 42.8473 9.69562V9.42759C42.8482 9.24941 42.8271 9.07182 42.7845 8.89891C42.7453 8.73649 42.6704 8.58507 42.5654 8.45589C42.4534 8.32407 42.3105 8.22256 42.1499 8.16054C41.9423 8.08404 41.7223 8.04821 41.5014 8.05495C41.1765 8.05253 40.852 8.07897 40.5316 8.13396C40.4041 8.1571 40.2867 8.18171 40.1796 8.2078C40.1315 8.21856 40.0817 8.21903 40.0334 8.20918C39.9851 8.19932 39.9393 8.17936 39.8991 8.15058C39.8589 8.12179 39.825 8.08481 39.7998 8.04202C39.7745 7.99923 39.7584 7.95158 39.7524 7.90211L39.6713 7.34464C39.6558 7.2546 39.6739 7.16196 39.7221 7.08462C39.7702 7.00729 39.8451 6.95076 39.9321 6.92598C40.0825 6.88709 40.26 6.84796 40.4644 6.80858C40.855 6.73677 41.2513 6.70192 41.6482 6.70447ZM41.7746 12.6654C42.1331 12.6746 42.4917 12.6481 42.8451 12.5864V10.8143C42.7253 10.78 42.6033 10.7536 42.48 10.7352C42.3051 10.7076 42.1283 10.6942 41.9513 10.6954C41.7801 10.6956 41.6092 10.7089 41.4401 10.7352C41.278 10.7592 41.1208 10.8091 40.9742 10.8829C40.8392 10.95 40.724 11.0519 40.6404 11.1783C40.5518 11.3227 40.5078 11.4906 40.5141 11.6604C40.5141 12.0395 40.6275 12.3016 40.8544 12.4468C41.0813 12.592 41.388 12.6651 41.7746 12.6661V12.6654ZM34.9063 12.991C34.8469 12.802 34.8046 12.608 34.7799 12.4114C34.7788 12.3995 34.7749 12.388 34.7687 12.3779C34.7625 12.3677 34.754 12.3591 34.744 12.3528C34.734 12.3465 34.7227 12.3425 34.711 12.3413C34.6992 12.34 34.6873 12.3415 34.6762 12.3456C34.5633 12.388 34.4241 12.433 34.2585 12.4808C34.0183 12.5458 33.7703 12.5768 33.5217 12.5731C33.1186 12.5731 32.833 12.4542 32.6651 12.2164C32.4971 11.9787 32.4131 11.5822 32.4131 11.0269V8.51644H34.1658V7.369C34.1674 7.32185 34.1504 7.27598 34.1187 7.2414C34.087 7.20682 34.043 7.18633 33.9964 7.18441H32.4131V5.46252C32.4134 5.44662 32.4106 5.43082 32.4048 5.41601C32.3991 5.40121 32.3905 5.38769 32.3796 5.37624C32.3687 5.36479 32.3556 5.35563 32.3412 5.34928C32.3268 5.34292 32.3113 5.3395 32.2955 5.33922L31.0073 5.54005C30.9916 5.54034 30.9761 5.54376 30.9617 5.55011C30.9472 5.55647 30.9342 5.56563 30.9233 5.57708C30.9123 5.58853 30.9038 5.60205 30.898 5.61685C30.8923 5.63165 30.8895 5.64746 30.8897 5.66336V11.0402C30.8848 11.4506 30.9225 11.8605 31.0022 12.2629C31.0658 12.5919 31.1991 12.903 31.3929 13.1748C31.5858 13.4324 31.845 13.6314 32.1422 13.75C32.4572 13.882 32.8496 13.9482 33.3194 13.9487C33.7057 13.9487 34.0343 13.8748 34.3272 13.8231C34.5163 13.7906 34.8493 13.6976 35.0574 13.6363C35.0713 13.632 35.084 13.6247 35.0947 13.6147C35.1053 13.6048 35.1137 13.5926 35.119 13.579C35.1243 13.5653 35.1265 13.5507 35.1255 13.5361C35.1245 13.5214 35.1202 13.5073 35.1129 13.4946C35.026 13.3349 34.9567 13.166 34.9063 12.991ZM38.2444 12.5376C38.2422 12.5282 38.2381 12.5192 38.2324 12.5113C38.2268 12.5035 38.2197 12.4968 38.2114 12.4917C38.2032 12.4866 38.1941 12.4833 38.1846 12.4818C38.1751 12.4803 38.1654 12.4807 38.156 12.483C37.976 12.5265 37.7888 12.5293 37.6076 12.4911C37.4918 12.4425 37.3869 12.3707 37.2994 12.2799C37.2211 12.182 37.167 12.0666 37.1417 11.9432C37.1096 11.7824 37.0949 11.6185 37.0978 11.4544V4.75295C37.0981 4.73704 37.0953 4.72124 37.0896 4.70644C37.0838 4.69163 37.0752 4.67812 37.0643 4.66667C37.0534 4.65522 37.0404 4.64605 37.0259 4.6397C37.0115 4.63335 36.996 4.62993 36.9803 4.62964L35.6913 4.829C35.6756 4.82929 35.6601 4.83271 35.6457 4.83906C35.6312 4.84541 35.6182 4.85458 35.6073 4.86603C35.5964 4.87748 35.5878 4.89099 35.582 4.9058C35.5763 4.9206 35.5735 4.93641 35.5738 4.95231V11.7535C35.5698 12.0631 35.6059 12.3719 35.6811 12.672C35.7441 12.9259 35.8724 13.1584 36.0528 13.3461C36.2534 13.5406 36.4974 13.6835 36.7641 13.7626C37.0321 13.846 38.1078 14.0166 38.6628 13.6688C38.6707 13.6638 38.6775 13.6573 38.6828 13.6495C38.688 13.6417 38.6915 13.6329 38.6932 13.6236C38.6948 13.6144 38.6946 13.6049 38.6923 13.5957C38.6901 13.5866 38.6861 13.578 38.6804 13.5706C38.5227 13.3584 38.4051 13.1186 38.3335 12.8632C38.2978 12.7565 38.2681 12.6478 38.2444 12.5376ZM45.1258 13.527C45.1242 13.5703 45.1381 13.6127 45.1649 13.6465C45.1918 13.6802 45.2297 13.7031 45.2719 13.7109C45.9043 13.8076 47.1377 13.9516 47.9476 13.8453C49.1285 13.6902 50.1384 13.0427 49.9843 11.5172C49.8127 9.98802 48.813 9.7318 47.6526 9.48075C46.5075 9.25924 46.4936 8.74755 46.6966 8.44112C46.8034 8.30253 46.9502 8.20088 47.1165 8.1502C47.3352 8.07553 47.565 8.0398 47.7957 8.04462C48.1208 8.05651 48.4442 8.09802 48.7619 8.16866C48.8875 8.19328 49.0031 8.21936 49.1087 8.24693C49.1569 8.2596 49.2071 8.26184 49.2561 8.2535C49.3052 8.24516 49.3519 8.22644 49.3933 8.19855C49.4347 8.17066 49.4697 8.13423 49.4962 8.09167C49.5227 8.04911 49.54 8.00137 49.5469 7.95158L49.636 7.39485C49.6523 7.30497 49.635 7.21219 49.5875 7.13445C49.54 7.05671 49.4657 6.99953 49.3789 6.97397C49.2285 6.93263 49.0511 6.89078 48.8466 6.84845C48.4571 6.77005 48.0613 6.72852 47.6642 6.7244C47.1604 6.71653 46.7353 6.77609 46.3892 6.90309C46.0713 7.01037 45.7847 7.19585 45.5552 7.44284C45.3409 7.68999 45.1859 7.98388 45.1024 8.30157C44.8191 9.23635 45.3558 10.4753 46.433 10.6946C47.5102 10.9139 48.4814 10.8076 48.4296 11.7483C48.3661 12.6624 46.0927 12.3634 45.2222 12.2024C45.2132 12.2008 45.204 12.2012 45.1952 12.2035C45.1865 12.2059 45.1783 12.2102 45.1713 12.2161C45.1643 12.222 45.1588 12.2294 45.1549 12.2378C45.1511 12.2461 45.1491 12.2552 45.1492 12.2644L45.1258 13.527Z" fill="#263746"/>
</svg>
