<svg width="53" height="53" viewBox="0 0 53 53" fill="none" xmlns="http://www.w3.org/2000/svg">
<g clip-path="url(#clip0_2:3436)">
<path d="M3.96464 39.4753L3.96454 39.4751C2.86839 37.5768 2.00688 35.5279 1.41689 33.3665L1.41681 33.3662C0.818493 31.1798 0.5 28.8769 0.5 26.5C0.5 12.1406 12.1406 0.5 26.5 0.5C38.351 0.5 48.3505 8.42888 51.4823 19.2727C52.1445 21.5667 52.5 23.9916 52.5 26.5C52.5 28.0732 52.3599 29.6132 52.0925 31.1084C49.9181 43.2697 39.2862 52.5 26.5 52.5C16.8668 52.5 8.45645 47.2616 3.96464 39.4753Z" fill="#212D3D" stroke="white"/>
<path d="M13.475 18.4508H3.71541L0.93457 33.4985C1.536 35.7018 2.41422 37.7904 3.53157 39.7254H4.43692L5.51421 33.8976H10.8769C17.4067 33.8976 19.1622 28.0352 19.583 25.1558C20.0048 22.2776 17.8989 18.4508 13.475 18.4508ZM14.8909 25.6414C14.6518 27.2737 13.4458 30.5974 9.74447 30.5974H6.12422L7.74238 21.8395H11.4275C15.0196 21.8395 15.1299 24.0093 14.8909 25.6414Z" fill="#F2F2F2"/>
<path d="M51.9626 19.1342C51.1331 18.7058 50.1444 18.4506 49.0022 18.4506H39.2426L35.3109 39.7253H39.964L41.0413 33.8975H46.4041C49.3083 33.8975 51.2682 32.738 52.5845 31.1966C52.8572 29.6726 53 28.1031 53 26.5001C53 23.9442 52.6377 21.4727 51.9626 19.1342ZM50.4181 25.6413C50.1791 27.2735 48.973 30.5973 45.2706 30.5973H41.6515L43.2696 21.8394H46.9548C50.5469 21.8394 50.6571 24.0091 50.4181 25.6413Z" fill="#F2F2F2"/>
<path d="M32.011 18.5212C30.1172 18.5212 27.5905 18.5212 26.3594 18.5212L27.4202 12.7811H22.7862L18.8544 34.0553H23.4883L25.7494 21.8212C26.5848 21.8212 27.6945 21.8212 28.711 21.8212C30.6769 21.8212 32.011 22.2425 31.73 24.068C31.4492 25.8935 29.8344 33.9678 29.8344 33.9678H34.5385C34.5385 33.9678 36.364 24.9808 36.6449 22.453C36.9258 19.9254 34.6088 18.5212 32.011 18.5212Z" fill="#F2F2F2"/>
</g>
<defs>
<clipPath id="clip0_2:3436">
<rect width="53" height="53" fill="white"/>
</clipPath>
</defs>
</svg>
