<svg width="70" height="70" viewBox="0 0 70 70" fill="none" xmlns="http://www.w3.org/2000/svg">
<path d="M43.8003 25.5999C43.6403 25.5999 43.4803 25.5999 43.3203 25.5199C40.4403 24.5599 36.7603 23.9999 33.0003 23.9999C29.2403 23.9999 25.5603 24.5599 22.6803 25.5199C21.8803 25.8399 20.9203 25.3599 20.6803 24.5599C20.3603 23.7599 20.8403 22.7999 21.6403 22.5599C24.8403 21.4399 28.7603 20.8799 32.9203 20.8799C37.0803 20.8799 41.0003 21.4399 44.2003 22.5599C45.0003 22.8799 45.4803 23.7599 45.1603 24.5599C45.0803 25.1999 44.4403 25.5999 43.8003 25.5999Z" fill="#212D3D"/>
<path d="M8.75994 27.92C8.59994 27.92 8.51994 27.92 8.35994 27.84C5.71994 27.12 2.99994 25.68 0.599943 23.68C-0.0400573 23.12 -0.200057 22.08 0.359943 21.44C0.919943 20.72 1.95994 20.64 2.59994 21.2C4.67994 22.88 6.99994 24.16 9.15994 24.8C10.0399 25.04 10.5199 25.92 10.2799 26.72C10.1199 27.44 9.39994 27.92 8.75994 27.92Z" fill="#212D3D"/>
<path d="M52.6002 69.6H42.2002C41.5602 69.6 40.9202 69.2 40.6802 68.56L39.6402 65.76C37.4802 66.16 35.2402 66.4 33.0002 66.4C29.4802 66.4 26.0402 65.92 22.7602 64.88L21.3202 68.56C21.0802 69.2 20.5202 69.6 19.8002 69.6H9.4002C8.6002 69.6 7.8802 68.96 7.8002 68.16L6.3602 53.36C3.6402 49.36 2.2002 44.8 2.2002 40.08C2.2002 29.04 10.3602 19.04 22.5202 15.36C23.4002 15.12 24.2802 15.6 24.5202 16.4C24.7602 17.28 24.2802 18.16 23.4802 18.4C12.6802 21.76 5.4002 30.48 5.4002 40.08C5.4002 44.24 6.7602 48.32 9.2402 51.84C9.4002 52.08 9.4802 52.32 9.5602 52.64L10.8402 66.4H18.6802L20.2802 62.32C20.6002 61.52 21.4802 61.12 22.2802 61.44C25.6402 62.64 29.2402 63.2 32.9202 63.2C35.4002 63.2 37.8802 62.96 40.2002 62.4C41.0002 62.24 41.8002 62.64 42.0402 63.36L43.1602 66.4H51.0802L52.3602 57.04C52.4402 56.64 52.6002 56.32 52.9202 56.08C56.2002 53.2 58.5202 49.68 59.7202 45.84C59.8802 45.28 60.3602 44.88 60.9202 44.72L66.2002 43.52V36H61.4002C60.6802 36 60.0402 35.52 59.8802 34.8C58.7602 30.72 56.2802 26.96 52.7602 23.92C52.2002 23.44 52.0402 22.64 52.3602 21.92L55.7202 15.68C53.4802 15.44 49.6402 15.6 46.7602 18.8C46.2802 19.28 45.5602 19.44 45.0002 19.2C42.2002 18.08 39.3202 17.36 36.2002 17.04C35.3202 16.96 34.6802 16.16 34.7602 15.28C34.8402 14.4 35.6402 13.76 36.5202 13.84C39.4802 14.16 42.4402 14.8 45.1602 15.84C50.8402 10.48 58.3602 12.88 58.6802 13.04C59.1602 13.2 59.4802 13.52 59.6402 14C59.8002 14.48 59.8002 14.96 59.5602 15.36L55.8002 22.4C59.0002 25.36 61.3202 28.96 62.6002 32.8H67.8002C68.6802 32.8 69.4002 33.52 69.4002 34.4V44.8C69.4002 45.52 68.8402 46.16 68.1202 46.4L62.5202 47.68C61.1602 51.52 58.7602 55.12 55.5602 58.08L54.2002 68.24C54.0402 69.04 53.4002 69.6 52.6002 69.6Z" fill="#212D3D"/>
<path d="M49.4001 39.9999C46.7601 39.9999 44.6001 37.8399 44.6001 35.1999C44.6001 32.5599 46.7601 30.3999 49.4001 30.3999C52.0401 30.3999 54.2001 32.5599 54.2001 35.1999C54.2001 37.8399 52.0401 39.9999 49.4001 39.9999ZM49.4001 33.5999C48.5201 33.5999 47.8001 34.3199 47.8001 35.1999C47.8001 36.0799 48.5201 36.7999 49.4001 36.7999C50.2801 36.7999 51.0001 36.0799 51.0001 35.1999C51.0001 34.3199 50.2801 33.5999 49.4001 33.5999Z" fill="#212D3D"/>
<path d="M26.2003 24.5598C25.8803 24.5598 25.6403 24.4798 25.3203 24.3198C22.8403 22.7998 21.3203 20.0798 21.3203 17.1998C21.4003 12.5598 25.1603 8.7998 29.8003 8.7998C34.4403 8.7998 38.2003 12.5598 38.2003 17.1998C38.2003 19.4398 37.3203 21.5198 35.7203 23.1198C35.0803 23.7598 34.1203 23.7598 33.4803 23.1198C32.8403 22.4798 32.8403 21.5198 33.4803 20.8798C34.4403 19.9198 35.0003 18.5598 35.0003 17.1998C35.0003 14.3198 32.6803 11.9998 29.8003 11.9998C26.9203 11.9998 24.6003 14.3198 24.6003 17.1998C24.6003 19.0398 25.5603 20.6398 27.0803 21.5998C27.8003 22.0798 28.0403 23.0398 27.5603 23.8398C27.2403 24.3198 26.7603 24.5598 26.2003 24.5598Z" fill="#212D3D"/>
<path d="M36.28 16.72C35.48 16.72 34.84 16.16 34.68 15.36C34.6 14.48 35.16 13.68 36.04 13.6C38.6 13.28 40.6 11.04 40.6 8.48C40.6 5.6 38.28 3.28 35.4 3.28C32.52 3.28 30.2 5.52 30.2 8.4C30.2 8.96 30.28 9.44 30.44 10C30.68 10.88 30.28 11.76 29.4 12C28.6 12.24 27.64 11.84 27.4 10.96C27.16 10.16 27 9.28 27 8.4C27 3.76 30.76 0 35.4 0C40.04 0 43.8 3.76 43.8 8.4C43.8 12.64 40.68 16.16 36.52 16.72C36.44 16.72 36.36 16.72 36.28 16.72Z" fill="#212D3D"/>
</svg>
