<svg width="115" height="54" viewBox="0 0 115 54" fill="none" xmlns="http://www.w3.org/2000/svg">
<path d="M101.5 16.1313C101.138 15.7687 100.594 15.7687 100.231 16.1313L87.3625 29C87 29.3625 87 29.9063 87.3625 30.2688C87.5438 30.45 87.725 30.45 88.0875 30.45C88.45 30.45 88.6313 30.45 88.8125 30.2688L89.7188 29.3625L98.0563 37.7C98.2375 37.8813 98.4188 37.8813 98.7813 37.8813C99.1438 37.8813 99.325 37.8813 99.5063 37.7C99.8688 37.3375 99.8688 36.7938 99.5063 36.4313L91.1688 28.0938L101.863 17.4C101.863 17.0375 101.863 16.3125 101.5 16.1313Z" fill="#212D3D"/>
<path d="M54.9187 36.25C54.5562 36.6125 54.5562 37.1562 54.9187 37.5187C55.1 37.7 55.2812 37.7 55.6437 37.7C56.0062 37.7 56.1875 37.7 56.3687 37.5187L64.7062 29.1812C64.7062 29.1812 64.7062 29 64.8875 29L69.4187 33.5312C71.5937 35.7062 74.4937 36.7937 77.3937 36.7937C80.2937 36.7937 83.1937 35.7062 85.3687 33.5312C85.7312 33.1687 85.7312 32.625 85.3687 32.2625C85.0062 31.9 84.4625 31.9 84.1 32.2625C80.2937 36.0687 74.3125 36.0687 70.5062 32.2625L54.375 16.1312C54.0125 15.7688 53.4687 15.7688 53.1062 16.1312C52.7437 16.4937 52.7437 17.0375 53.1062 17.4L63.6187 27.9125C63.6187 27.9125 63.4375 27.9125 63.4375 28.0937L54.9187 36.25Z" fill="#212D3D"/>
<path d="M111.469 26.6437C110.2 26.6437 109.112 27.7313 109.112 29V37.1563C109.112 43.6813 103.856 48.9375 97.3312 48.9375H45.1312V16.4937C45.1312 9.96875 50.3875 4.7125 56.9125 4.7125H111.469C112.737 4.7125 113.825 3.625 113.825 2.35625C113.825 1.0875 112.737 0 111.469 0H56.9125C47.85 0 40.6 7.25 40.6 16.3125V53.1063H97.5125C106.394 53.1063 113.825 45.8563 113.825 36.7938V28.6375C113.825 27.55 112.737 26.6437 111.469 26.6437Z" fill="#212D3D"/>
<path d="M34.9813 13.5938H13.2313C12.6875 13.5938 12.325 13.9562 12.325 14.5C12.325 15.0438 12.6875 15.4062 13.2313 15.4062H34.9813C35.525 15.4062 35.8875 15.0438 35.8875 14.5C35.8875 13.9562 35.525 13.5938 34.9813 13.5938Z" fill="#212D3D"/>
<path d="M23.5625 26.8251C23.5625 26.2813 23.2 25.9188 22.6562 25.9188H0.90625C0.3625 25.9188 0 26.2813 0 26.8251C0 27.3688 0.3625 27.7313 0.90625 27.7313H22.6562C23.2 27.7313 23.5625 27.3688 23.5625 26.8251Z" fill="#212D3D"/>
<path d="M30.8125 38.2438H9.0625C8.51875 38.2438 8.15625 38.6063 8.15625 39.15C8.15625 39.6938 8.51875 40.0563 9.0625 40.0563H30.8125C31.3563 40.0563 31.7188 39.6938 31.7188 39.15C31.7188 38.6063 31.3563 38.2438 30.8125 38.2438Z" fill="#212D3D"/>
<path d="M111.469 22.1124C112.97 22.1124 114.188 20.8952 114.188 19.3937C114.188 17.8922 112.97 16.6749 111.469 16.6749C109.967 16.6749 108.75 17.8922 108.75 19.3937C108.75 20.8952 109.967 22.1124 111.469 22.1124Z" fill="#212D3D"/>
</svg>
