<svg width="62" height="62" viewBox="0 0 62 62" fill="none" xmlns="http://www.w3.org/2000/svg">
<g clip-path="url(#clip0_2:3458)">
<path d="M52.1305 22.0039C52.1305 20.3357 48.3307 17.9723 41.5188 18.2968C34.7069 18.621 10.7492 22.2167 9.86877 27.3235C9.86877 27.3235 13.6571 28.9665 28.6711 29.9743C43.6852 30.9822 50.7403 25.1088 50.7403 25.1088L52.1305 22.0039Z" fill="#D0D0D0"/>
<path d="M52.1305 16.8044C51.4354 20.836 38.3676 22.9676 29.2851 24.4504C20.2024 25.9332 12.4176 26.1187 9.86877 27.3236V11.5775C12.4174 10.3726 20.2026 10.1874 29.2852 8.70457C38.3678 7.22178 51.4355 5.08992 52.1305 1.05847V16.8044Z" fill="white"/>
<path d="M52.1305 42.9495C52.1305 41.2813 48.3307 38.9179 41.5188 39.2423C34.7069 39.5666 10.7492 43.1622 9.86877 48.269C9.86877 48.269 13.6571 49.912 28.6711 50.9199C43.6852 51.9278 50.7403 46.0542 50.7403 46.0542L52.1305 42.9495Z" fill="#D0D0D0"/>
<path d="M52.1311 37.75C51.4361 41.7815 38.3682 43.9132 29.2857 45.3959C20.2031 46.8787 12.4182 47.0643 9.86942 48.269V32.5231C12.4181 31.3182 20.2032 31.1329 29.2858 29.6501C38.3685 28.1673 51.4362 26.0356 52.1313 22.0042V37.75H52.1311Z" fill="white"/>
<path d="M52.1306 42.9497V53.682C46.5936 58.8433 39.1663 62.0002 31 62.0002C22.8325 62.0002 15.4051 58.8419 9.86816 53.6808V53.4683C12.4178 52.2638 20.2019 52.079 29.2855 50.5961C38.3678 49.113 51.4359 46.981 52.1306 42.9497Z" fill="white"/>
</g>
<defs>
<clipPath id="clip0_2:3458">
<rect width="62" height="62" fill="white"/>
</clipPath>
</defs>
</svg>
