<svg width="60" height="60" viewBox="0 0 60 60" fill="none" xmlns="http://www.w3.org/2000/svg">
<path d="M31.0511 39.2331C32.4029 39.2331 33.5012 38.1296 33.5012 36.7764C33.5012 35.4262 32.4029 34.3304 31.0511 34.3304L19.9503 26.1656L28.6009 36.9341C28.6812 38.2159 29.7491 39.2331 31.0511 39.2331Z" fill="#212D3D"/>
<path d="M42.2348 46.4669H17.7656V52.2737H42.2348V46.4669Z" fill="#212D3D"/>
<path d="M51.2132 16.5137C45.5468 10.8474 38.0131 7.72687 30 7.72687C21.9867 7.72687 14.4529 10.8474 8.78666 16.5137C3.12038 22.1799 0 29.7136 0 37.7269C0 42.9009 1.30351 47.8734 3.75094 52.2737H9.35806L13.4591 49.9057L11.648 46.7685L6.37462 49.8134C4.5116 46.1861 3.45916 42.0772 3.45916 37.7269C3.45916 36.957 3.49413 36.1951 3.55861 35.4416L9.84637 36.5502L10.4754 32.9828L4.11365 31.8611C5.25043 26.8419 7.81353 22.3583 11.353 18.8598L15.6633 23.9968L18.4383 21.6684L14.0953 16.4927C18.0777 13.5023 22.9254 11.6057 28.1889 11.2494V18.1197H31.8111V11.2494C37.0746 11.6059 41.9223 13.5024 45.9049 16.4928L41.5617 21.6684L44.3366 23.9968L48.647 18.8597C52.1863 22.3583 54.7494 26.8419 55.8862 31.861L49.5246 32.9829L50.1538 36.5501L56.4411 35.4413C56.5056 36.1949 56.5406 36.9567 56.5406 37.7266C56.5406 42.0772 55.4885 46.1862 53.6252 49.8132L48.3517 46.7687L46.5407 49.9057L50.6417 52.2734H56.2491C58.6966 47.8731 60 42.9006 60 37.7266C60.0001 29.7134 56.8793 22.1797 51.2132 16.5137Z" fill="#212D3D"/>
</svg>
