<svg width="73" height="79" viewBox="0 0 73 79" fill="none" xmlns="http://www.w3.org/2000/svg">
<path d="M26.1034 34.84C26.6062 34.4839 27.2072 34.2926 27.8234 34.2926C28.4396 34.2926 29.0405 34.4839 29.5434 34.84C30.0385 35.2137 30.473 35.6616 30.8314 36.168C31.213 36.2209 31.5985 36.2396 31.9834 36.224C32.3145 36.2504 32.6476 36.2179 32.9674 36.128C33.1862 35.5189 33.256 34.8663 33.1711 34.2247C33.0862 33.5832 32.8491 32.9712 32.4794 32.44C31.9656 31.661 31.2665 31.0217 30.4448 30.5794C29.6231 30.1371 28.7045 29.9055 27.7714 29.9055C26.8382 29.9055 25.9196 30.1371 25.098 30.5794C24.2763 31.0217 23.5772 31.661 23.0634 32.44C22.6922 32.9719 22.4529 33.5845 22.3652 34.2271C22.2776 34.8698 22.3442 35.5241 22.5594 36.136C22.9405 36.2336 23.3354 36.2661 23.7274 36.232C24.0697 36.2447 24.4125 36.2259 24.7514 36.176C25.1286 35.662 25.5849 35.2111 26.1034 34.84Z" fill="#212D3D"/>
<path d="M41.5994 36.16C41.9658 35.6548 42.4084 35.2095 42.9114 34.84C43.4142 34.4839 44.0152 34.2926 44.6314 34.2926C45.2476 34.2926 45.8486 34.4839 46.3514 34.84C46.8608 35.2105 47.3089 35.6586 47.6794 36.168C48.061 36.2209 48.4465 36.2396 48.8314 36.224C49.1625 36.2504 49.4957 36.2179 49.8154 36.128C50.0342 35.5189 50.1041 34.8663 50.0192 34.2247C49.9343 33.5832 49.6971 32.9712 49.3274 32.44C48.8136 31.661 48.1145 31.0217 47.2928 30.5794C46.4712 30.1371 45.5526 29.9055 44.6194 29.9055C43.6862 29.9055 42.7676 30.1371 41.946 30.5794C41.1243 31.0217 40.4252 31.661 39.9114 32.44C39.5402 32.9719 39.3009 33.5845 39.2133 34.2271C39.1256 34.8698 39.1922 35.5241 39.4074 36.136C39.7885 36.2336 40.1834 36.2661 40.5754 36.232C40.9182 36.2394 41.261 36.2153 41.5994 36.16Z" fill="#212D3D"/>
<path d="M0.503373 52.024C0.925222 53.1401 1.59751 54.1446 2.46849 54.9601C3.33948 55.7756 4.38595 56.3804 5.52737 56.728C6.17537 56.912 6.55137 56.976 7.03137 57.096L8.42337 57.416L9.82337 57.736H9.99937L10.2634 57.784C10.4501 57.8318 10.6399 57.8665 10.8314 57.888C12.1888 57.9665 13.5248 57.5231 14.5659 56.6486C15.607 55.774 16.2744 54.5346 16.4314 53.184V52.6V51.488L16.4954 45.368L16.5914 32.688C16.6363 30.7312 16.9403 28.789 17.4954 26.912C18.1175 25.0339 18.998 23.2515 20.1114 21.616C22.4105 18.3178 25.6664 15.8047 29.4394 14.416C30.376 14.08 31.3359 13.8127 32.3114 13.616L33.7914 13.392C34.285 13.3275 34.7817 13.2901 35.2794 13.28L36.0234 13.24C36.2714 13.24 36.5194 13.24 36.7674 13.24C37.2634 13.24 37.7674 13.24 38.2554 13.328L39.7274 13.552C40.2234 13.616 40.6954 13.784 41.1754 13.896C44.9989 14.9235 48.423 17.0817 50.9994 20.088C52.24 21.5649 53.2735 23.204 54.0714 24.96C54.8339 26.6948 55.3586 28.5247 55.6314 30.4C55.7114 30.864 55.6954 31.328 55.7354 31.792C55.7754 32.256 55.7994 32.712 55.7914 33.24V36.28L55.8554 42.216L56.0154 53.416C56.0154 54.296 56.0554 55.224 56.0154 56.032V57.192C56.0154 57.576 55.9194 57.952 55.8714 58.328C55.6387 59.7895 55.1884 61.2079 54.5354 62.536C53.8928 63.7824 53.0856 64.9368 52.1354 65.968C51.2803 66.9299 50.3042 67.777 49.2314 68.488C47.456 69.6371 45.4527 70.3876 43.3594 70.688C43.0423 68.8732 42.0326 67.2525 40.5434 66.168C39.6813 65.5425 38.6883 65.1212 37.6394 64.936C36.6571 64.7672 35.6499 64.8136 34.6874 65.072C33.852 65.2873 33.068 65.6671 32.3812 66.1891C31.6943 66.7111 31.1185 67.3648 30.6874 68.112C30.0795 69.1871 29.8486 70.4346 30.0314 71.656C30.0314 71.792 30.5674 71.896 31.1754 71.88C31.5154 71.912 31.8582 71.8627 32.1754 71.736C32.3987 71.0426 32.7793 70.4101 33.2874 69.888C33.8799 69.2826 34.662 68.8986 35.5034 68.8C35.9444 68.7485 36.3913 68.7879 36.8165 68.9159C37.2416 69.0438 37.6361 69.2576 37.9754 69.544C38.3226 69.8315 38.6021 70.1921 38.7939 70.6C38.9858 71.008 39.0853 71.4532 39.0853 71.904C39.0853 72.3548 38.9858 72.8 38.7939 73.208C38.6021 73.6159 38.3226 73.9765 37.9754 74.264C37.6366 74.5484 37.2433 74.7604 36.8195 74.8869C36.3958 75.0135 35.9506 75.052 35.5114 75C34.672 74.8933 33.8951 74.5006 33.3114 73.888C32.8011 73.3645 32.4202 72.7289 32.1994 72.032C31.8215 71.8916 31.4165 71.8396 31.0154 71.88C30.4554 71.88 30.0234 71.984 30.0074 72.112C29.8373 73.3527 30.088 74.6145 30.7194 75.696C31.1512 76.4426 31.7273 77.0959 32.414 77.6178C33.1007 78.1397 33.8844 78.5198 34.7194 78.736C35.7173 79.0011 36.7618 79.0396 37.7765 78.8485C38.7911 78.6575 39.7502 78.2418 40.5834 77.632C41.3498 77.0722 41.9965 76.3649 42.4856 75.5516C42.9747 74.7383 43.2963 73.8354 43.4314 72.896C45.9585 72.7726 48.4227 72.0662 50.6314 70.832C51.9962 70.0826 53.253 69.1514 54.3674 68.064C55.5687 66.8787 56.5998 65.5325 57.4314 64.064C58.3045 62.4699 58.9278 60.7512 59.2794 58.968C59.3594 58.504 59.4474 58.04 59.5034 57.568V57.232L59.6634 57.312C60.2118 57.539 60.7979 57.6612 61.3914 57.672C61.7017 57.6801 62.0122 57.6614 62.3194 57.616L62.9594 57.528L65.6394 57.088L66.3514 56.968C66.6677 56.9091 66.9802 56.8316 67.2874 56.736C67.9196 56.5488 68.5247 56.2799 69.0874 55.936C70.2673 55.2019 71.233 54.1699 71.8874 52.944C72.2309 52.316 72.484 51.6427 72.6394 50.944C72.7159 50.5959 72.7693 50.2431 72.7994 49.888V49.344V48.912V45.712V42.512V40.912C72.7994 40.624 72.7994 40.424 72.7994 40.112C72.79 39.7553 72.7553 39.3997 72.6954 39.048C72.4742 37.7193 71.9171 36.4692 71.0771 35.4163C70.237 34.3634 69.1418 33.5427 67.8954 33.032H67.7994V32.84V31.808V29.4C67.6832 27.6926 67.4344 25.9968 67.0554 24.328C66.1287 20.2757 64.3926 16.4525 61.9514 13.088C59.1073 9.16745 55.3944 5.95838 51.1034 3.712C46.4943 1.30276 41.3761 0.0300636 36.1754 0C30.9674 0.035853 25.8435 1.31682 21.2314 3.736C16.9516 5.99684 13.2526 9.21671 10.4234 13.144C7.98034 16.4947 6.23888 20.3041 5.30337 24.344C4.92574 26.0128 4.67965 27.7087 4.56737 29.416C4.56737 30.904 4.56737 32.288 4.65537 33.416C3.38612 33.9622 2.29648 34.8549 1.51137 35.992C0.699714 37.1726 0.241786 38.5602 0.191372 39.992V41.2L0.0553727 46.208L0.00737234 48.792C-0.0136893 49.3264 0.0103964 49.8616 0.0793725 50.392C0.158132 50.9504 0.300387 51.4979 0.503373 52.024ZM68.5034 39.568C68.5155 39.7358 68.5155 39.9042 68.5034 40.072V40.824V42.424V45.624V48.824C68.5034 48.944 68.5034 49.12 68.5034 49.2V49.456C68.4926 49.6252 68.4712 49.7935 68.4394 49.96C68.3814 50.2932 68.2763 50.6164 68.1274 50.92C67.8412 51.5544 67.3945 52.1031 66.8314 52.512C66.568 52.7105 66.2804 52.8745 65.9754 53C65.8238 53.0641 65.6689 53.1202 65.5114 53.168L64.8314 53.352L62.2074 54.072L61.5914 54.248C61.4893 54.2816 61.385 54.3084 61.2794 54.328C61.0705 54.3669 60.8562 54.3669 60.6474 54.328C60.2591 54.2598 59.8983 54.0821 59.6074 53.816C59.6074 53.688 59.6074 53.56 59.6074 53.432L59.7514 42.232L59.8314 36.288V34.4C60.4154 34.6 61.0474 34.8 61.7194 35.016L64.1194 35.72L65.4074 36.08C65.7273 36.1666 66.036 36.2901 66.3274 36.448C66.9096 36.7578 67.409 37.2029 67.7834 37.7458C68.1579 38.2888 68.3966 38.9137 68.4794 39.568H68.5034ZM8.34337 25.168C9.44631 21.6549 11.1844 18.3739 13.4714 15.488C16.0888 12.1377 19.4132 9.40617 23.2074 7.488C27.239 5.48602 31.6741 4.42991 36.1754 4.4C40.6766 4.42991 45.1117 5.48602 49.1434 7.488C52.9326 9.3891 56.2566 12.1013 58.8794 15.432C61.1793 18.3279 62.9258 21.623 64.0314 25.152C64.4911 26.6369 64.8571 28.1492 65.1274 29.68L65.3594 31.728L65.4314 32.328L64.8554 32.24L62.4074 31.912C61.4714 31.8 60.6154 31.712 59.8314 31.648C59.8314 31.088 59.8314 30.52 59.7274 29.96C59.4728 27.6709 58.902 25.4283 58.0314 23.296C57.0946 21.1429 55.8613 19.1315 54.3674 17.32C51.2597 13.6137 47.096 10.943 42.4314 9.664C41.8394 9.528 41.2634 9.328 40.6554 9.24L38.8314 8.968C38.2234 8.896 37.6154 8.888 37.0074 8.848C36.7034 8.848 36.3994 8.848 36.0954 8.848L35.1834 8.888C34.5734 8.90169 33.9646 8.94708 33.3594 9.024L31.5434 9.304C30.3438 9.55466 29.1645 9.89427 28.0154 10.32C23.3991 12.008 19.4173 15.0816 16.6154 19.12C15.2609 21.1243 14.1995 23.3117 13.4634 25.616C12.8634 27.6537 12.5168 29.7575 12.4314 31.88L9.67137 32.36L7.79137 32.696L6.83137 32.864C6.92737 31.872 7.07937 30.84 7.18337 29.664C7.46714 28.1429 7.84656 26.6413 8.31937 25.168H8.34337ZM3.32737 39.232C3.47448 38.4055 3.84535 37.6351 4.39966 37.0047C4.95397 36.3742 5.67051 35.9077 6.47137 35.656L12.4314 34.144L12.5034 45.344L12.5514 51.488V52.616C12.5477 52.6693 12.5477 52.7227 12.5514 52.776C12.534 52.9844 12.4712 53.1865 12.3674 53.368C12.2358 53.5997 12.0431 53.7909 11.8103 53.9207C11.5776 54.0505 11.3137 54.1139 11.0474 54.104C10.9942 54.1093 10.9406 54.1093 10.8874 54.104H10.7914H10.6154L9.23137 53.744L7.83137 53.464C7.39137 53.376 6.83137 53.272 6.58337 53.2C5.96146 53.0308 5.38652 52.7215 4.90258 52.2958C4.41864 51.8701 4.03853 51.3393 3.79137 50.744C3.66808 50.4541 3.57947 50.1507 3.52737 49.84C3.47202 49.4908 3.44792 49.1374 3.45537 48.784L3.38337 46.208L3.27937 41.264V40.096C3.26795 39.8071 3.28402 39.5178 3.32737 39.232Z" fill="#212D3D"/>
<path d="M28.4313 49.968C30.6162 51.8231 33.3891 52.8416 36.2553 52.8416C39.1215 52.8416 41.8945 51.8231 44.0793 49.968C45.6646 48.6662 46.7869 46.8872 47.2793 44.896C47.2793 44.8 46.8553 44.504 46.2953 44.24C45.9953 44.0613 45.6591 43.952 45.3113 43.92C44.2738 45.0577 43.0902 46.053 41.7913 46.88C40.1263 47.8956 38.2136 48.4328 36.2633 48.4328C34.313 48.4328 32.4004 47.8956 30.7353 46.88C29.4314 46.0534 28.2424 45.0581 27.1993 43.92C26.7871 43.9525 26.3877 44.0784 26.0313 44.288C25.5433 44.528 25.2313 44.768 25.2313 44.856C25.7131 46.8629 26.8366 48.6578 28.4313 49.968Z" fill="#212D3D"/>
</svg>
