<svg width="25" height="20" viewBox="0 0 25 20" fill="none" xmlns="http://www.w3.org/2000/svg">
<path d="M24.6024 2.81519C24.0469 3.04097 23.4703 3.21909 22.8787 3.34805C23.5306 2.78016 24.0208 2.06985 24.2973 1.27701C24.3763 1.05067 24.1081 0.85495 23.8851 0.976138C23.062 1.42368 22.1754 1.75942 21.2498 1.97414C21.1961 1.9866 21.1407 1.99291 21.0851 1.99291C20.9165 1.99291 20.7526 1.93553 20.6237 1.83138C19.639 1.03581 18.3724 0.597656 17.0575 0.597656C16.4885 0.597656 15.914 0.678951 15.35 0.839306C13.6023 1.33618 12.2539 2.65763 11.8308 4.28799C11.6721 4.89952 11.6291 5.5116 11.703 6.10721C11.7115 6.17565 11.6762 6.22342 11.6544 6.24583C11.6162 6.28511 11.562 6.30762 11.5058 6.30762C11.4995 6.30762 11.493 6.30734 11.4866 6.30678C7.66111 5.98099 4.21144 4.29157 1.77303 1.54978C1.64868 1.40993 1.41024 1.42709 1.31113 1.58292C0.833627 2.33384 0.581283 3.19272 0.581283 4.06668C0.581283 5.40606 1.16832 6.66828 2.18799 7.58845C1.75919 7.49525 1.34417 7.34847 0.958641 7.15219C0.772126 7.05721 0.542639 7.17929 0.540018 7.37485C0.513321 9.36458 1.78418 11.1351 3.68798 11.9323C3.64964 11.9332 3.6113 11.9336 3.5729 11.9336C3.27112 11.9336 2.96557 11.9068 2.66483 11.8542C2.45478 11.8174 2.27833 12 2.34354 12.1867C2.96148 13.9551 4.62256 15.2587 6.61035 15.5546C4.9606 16.5698 3.03944 17.1052 1.03989 17.1052L0.416529 17.1049C0.224467 17.1049 0.0620284 17.2197 0.0130835 17.3902C-0.03513 17.5581 0.0536779 17.7353 0.217457 17.8227C2.47063 19.0246 5.0407 19.6599 7.65093 19.6599C9.93574 19.6599 12.073 19.2443 14.0033 18.4246C15.773 17.6732 17.3368 16.599 18.6513 15.232C19.8758 13.9586 20.8334 12.4885 21.4973 10.8627C22.1302 9.31296 22.4647 7.65935 22.4647 6.08061V6.00541C22.4646 5.75191 22.5897 5.51339 22.8079 5.35103C23.6359 4.73475 24.357 4.0093 24.951 3.19484C25.1078 2.97979 24.8605 2.71026 24.6024 2.81519Z" fill="#76A9EA"/>
</svg>
