<svg width="199" height="160" viewBox="0 0 199 160" fill="none" xmlns="http://www.w3.org/2000/svg">
<g clip-path="url(#clip0_2:3236)">
<path opacity="0.1" d="M115.62 18.2909C102.862 17.9234 90.7122 14.4911 79.1177 10.7355C67.5232 6.97985 56.0134 2.82598 43.5613 0.836589C35.5529 -0.442857 26.3946 -0.623711 19.9417 2.95297C13.731 6.39496 11.7255 12.3381 10.6469 17.8542C9.83352 22.0023 9.35666 26.3697 11.5813 30.2523C13.1196 32.9459 15.8673 35.2142 17.7631 37.7962C24.3583 46.7831 19.6975 57.8633 12.5485 66.6367C9.19515 70.7521 5.30533 74.6789 2.71724 79.0598C0.129154 83.4407 -1.06298 88.4642 1.19631 92.9278C3.44021 97.353 8.78751 100.683 14.5809 103.025C26.3465 107.777 40.2118 109.137 53.731 109.909C83.6574 111.614 113.745 110.871 143.753 110.136C154.857 109.863 166.011 109.586 176.936 108.154C183.003 107.36 189.265 106.099 193.665 103.056C199.256 99.1923 200.64 92.6489 196.895 87.8043C190.611 79.6774 173.244 77.6592 168.843 68.9378C166.424 64.1374 168.909 58.7888 172.421 54.3367C179.959 44.786 192.594 36.4071 193.259 25.4905C193.715 17.9869 187.642 10.4834 178.251 6.9356C168.409 3.21655 154.759 3.68408 147.487 9.84081C140.024 16.1784 126.884 18.6238 115.62 18.2909Z" fill="white"/>
<path opacity="0.1" d="M83.7282 160C114.604 160 139.634 157.474 139.634 154.359C139.634 151.243 114.604 148.718 83.7282 148.718C52.8526 148.718 27.8229 151.243 27.8229 154.359C27.8229 157.474 52.8526 160 83.7282 160Z" fill="white"/>
<path d="M32.5856 153.747C32.5856 153.747 30.1052 139.685 20.8989 132.716C17.036 129.792 14.2095 125.815 12.975 121.286C12.3941 119.14 12.0219 116.943 11.8636 114.725" stroke="#535461" stroke-width="2" stroke-miterlimit="10"/>
<path d="M6.09139 110.3C6.86051 111.806 12.0001 114.856 12.0001 114.856C12.0001 114.856 12.6462 109.159 11.8713 107.651C11.0964 106.142 9.1794 105.513 7.57964 106.244C5.97987 106.975 5.3165 108.791 6.09139 110.3Z" fill="white"/>
<path d="M5.60115 120.841C7.12016 121.709 13.1847 121.632 13.1847 121.632C13.1847 121.632 10.4485 116.518 8.93529 115.65C7.42204 114.783 5.44348 115.241 4.52438 116.674C3.60529 118.107 4.08406 119.973 5.60115 120.841Z" fill="white"/>
<path d="M13.1404 135.025C14.9132 135.05 20.1067 132.091 20.1067 132.091C20.1067 132.091 15.0132 128.982 13.2385 128.955C11.4637 128.928 10.0043 130.267 9.96973 131.943C9.93512 133.618 11.3657 134.994 13.1404 135.025Z" fill="white"/>
<path d="M21.4007 144.535C23.1428 144.845 28.792 142.755 28.792 142.755C28.792 142.755 24.3272 138.873 22.5871 138.569C20.847 138.265 19.1645 139.338 18.8376 140.993C18.5108 142.648 19.6568 144.227 21.4007 144.535Z" fill="white"/>
<path d="M19.403 119.142C18.7973 120.718 14.0191 124.25 14.0191 124.25C14.0191 124.25 12.7539 118.648 13.3596 117.072C13.9653 115.496 15.8093 114.683 17.4763 115.254C19.1434 115.825 20.0086 117.569 19.403 119.142Z" fill="white"/>
<path d="M28.9151 130.386C27.8383 131.72 22.1622 133.74 22.1622 133.74C22.1622 133.74 22.7391 128.035 23.8081 126.704C24.3482 126.058 25.1119 125.639 25.9468 125.532C26.7816 125.425 27.626 125.638 28.3113 126.127C28.644 126.356 28.9256 126.652 29.1382 126.996C29.3508 127.339 29.4899 127.724 29.5466 128.124C29.6033 128.524 29.5765 128.932 29.4678 129.321C29.3591 129.711 29.1709 130.073 28.9151 130.386Z" fill="white"/>
<path d="M36.5716 142.513C35.7487 143.998 30.5167 146.896 30.5167 146.896C30.5167 146.896 30.0572 141.184 30.8801 139.698C31.7031 138.213 33.6432 137.64 35.216 138.417C36.7889 139.194 37.3926 141.028 36.5716 142.513Z" fill="white"/>
<path opacity="0.25" d="M6.09139 110.3C6.86051 111.806 12.0001 114.856 12.0001 114.856C12.0001 114.856 12.6462 109.159 11.8713 107.651C11.0964 106.142 9.1794 105.513 7.57964 106.244C5.97987 106.975 5.3165 108.791 6.09139 110.3Z" fill="black"/>
<path opacity="0.25" d="M5.60115 120.841C7.12016 121.709 13.1847 121.632 13.1847 121.632C13.1847 121.632 10.4485 116.518 8.93529 115.65C7.42204 114.783 5.44348 115.241 4.52438 116.674C3.60529 118.107 4.08406 119.973 5.60115 120.841Z" fill="black"/>
<path opacity="0.25" d="M13.1404 135.025C14.9132 135.05 20.1067 132.091 20.1067 132.091C20.1067 132.091 15.0132 128.982 13.2385 128.955C11.4637 128.928 10.0043 130.267 9.96973 131.943C9.93512 133.618 11.3657 134.994 13.1404 135.025Z" fill="black"/>
<path opacity="0.25" d="M21.4007 144.535C23.1428 144.845 28.792 142.755 28.792 142.755C28.792 142.755 24.3272 138.873 22.5871 138.569C20.847 138.265 19.1645 139.338 18.8376 140.993C18.5108 142.648 19.6568 144.227 21.4007 144.535Z" fill="black"/>
<path opacity="0.25" d="M19.403 119.142C18.7973 120.718 14.0191 124.25 14.0191 124.25C14.0191 124.25 12.7539 118.648 13.3596 117.072C13.9653 115.496 15.8093 114.683 17.4763 115.254C19.1434 115.825 20.0086 117.569 19.403 119.142Z" fill="black"/>
<path opacity="0.25" d="M28.9151 130.386C27.8383 131.72 22.1622 133.74 22.1622 133.74C22.1622 133.74 22.7391 128.035 23.8081 126.704C24.3482 126.058 25.1119 125.639 25.9468 125.532C26.7816 125.425 27.626 125.638 28.3113 126.127C28.644 126.356 28.9256 126.652 29.1382 126.996C29.3508 127.339 29.4899 127.724 29.5466 128.124C29.6033 128.524 29.5765 128.932 29.4678 129.321C29.3591 129.711 29.1709 130.073 28.9151 130.386Z" fill="black"/>
<path opacity="0.25" d="M36.5716 142.513C35.7487 143.998 30.5167 146.896 30.5167 146.896C30.5167 146.896 30.0572 141.184 30.8801 139.698C31.7031 138.213 33.6432 137.64 35.216 138.417C36.7889 139.194 37.3926 141.028 36.5716 142.513Z" fill="black"/>
<path d="M32.2742 153.378C32.2742 153.378 36.0371 139.571 30.611 129.674C28.3344 125.522 27.4557 120.805 28.2709 116.191C28.6623 113.997 29.2644 111.847 30.0688 109.769" stroke="#535461" stroke-width="2" stroke-miterlimit="10"/>
<path d="M26.6884 103.514C26.7499 105.188 30.1359 109.942 30.1359 109.942C30.1359 109.942 33.1701 104.98 33.1086 103.304C33.0471 101.628 31.5607 100.318 29.7879 100.376C28.0151 100.434 26.6249 101.838 26.6884 103.514Z" fill="white"/>
<path d="M21.7199 112.964C22.7351 114.338 28.3113 116.589 28.3113 116.589C28.3113 116.589 28.0036 110.867 26.9884 109.492C26.4749 108.825 25.7288 108.378 24.8996 108.238C24.0703 108.099 23.219 108.278 22.516 108.739C22.1743 108.954 21.8807 109.237 21.6535 109.571C21.4263 109.904 21.2705 110.281 21.1957 110.678C21.121 111.075 21.129 111.482 21.2192 111.876C21.3094 112.269 21.4798 112.64 21.7199 112.964Z" fill="white"/>
<path d="M22.5275 128.812C24.1388 129.515 30.1572 128.799 30.1572 128.799C30.1572 128.799 26.8327 124.004 25.2213 123.302C23.61 122.6 21.7026 123.264 20.9585 124.785C20.2144 126.307 20.9181 128.11 22.5275 128.812Z" fill="white"/>
<path d="M25.9981 140.674C27.4614 141.624 33.5201 141.876 33.5201 141.876C33.5201 141.876 31.1012 136.622 29.6399 135.673C28.9356 135.214 28.084 135.038 27.2557 135.181C26.4273 135.324 25.6835 135.774 25.1732 136.443C24.9335 136.769 24.764 137.142 24.6754 137.537C24.5869 137.932 24.5812 138.342 24.6587 138.739C24.7362 139.137 24.8952 139.514 25.1258 139.847C25.3563 140.18 25.6534 140.461 25.9981 140.674Z" fill="white"/>
<path d="M35.066 116.695C33.8354 117.903 27.9517 119.306 27.9517 119.306C27.9517 119.306 29.1996 113.697 30.4282 112.489C31.0362 111.906 31.8415 111.574 32.6835 111.558C33.5255 111.542 34.3425 111.845 34.9718 112.405C35.2742 112.671 35.5181 112.998 35.6881 113.363C35.858 113.729 35.9504 114.126 35.9592 114.529C35.9681 114.932 35.8933 115.333 35.7395 115.706C35.5858 116.079 35.3565 116.415 35.066 116.695Z" fill="white"/>
<path d="M38.9309 130.615C37.3753 131.421 31.3204 131.096 31.3204 131.096C31.3204 131.096 34.2873 126.094 35.8429 125.293C37.3984 124.493 39.352 125.026 40.2038 126.496C41.0556 127.966 40.4941 129.809 38.9309 130.615Z" fill="white"/>
<path d="M40.7364 144.633C39.3462 145.676 33.3202 146.322 33.3202 146.322C33.3202 146.322 35.3507 140.922 36.7408 139.879C37.4166 139.377 38.2567 139.149 39.0933 139.24C39.9299 139.331 40.7014 139.734 41.2537 140.37C41.5148 140.677 41.7095 141.035 41.8255 141.422C41.9416 141.808 41.9764 142.214 41.9278 142.615C41.8792 143.015 41.7483 143.401 41.5432 143.749C41.3382 144.096 41.0635 144.397 40.7364 144.633Z" fill="white"/>
<path d="M190.782 72.7572C190.897 72.4416 190.032 70.6927 190.032 70.6062C190.032 70.5196 189.138 69.5441 189.138 68.9996C189.138 68.4552 187.954 67.2796 187.954 67.2796C187.954 67.2796 186.367 66.6197 186.194 65.1863C186.021 63.753 184.293 63.7222 184.289 63.7222C184.289 63.7222 184.289 63.5913 184.3 63.3932C184.3 62.9468 184.287 62.1503 184.087 61.7155C183.881 61.3197 183.528 61.0206 183.104 60.8824C183.104 60.8824 182.931 59.7645 182.585 59.4202C182.392 59.218 182.253 58.9699 182.182 58.6993C182.111 58.4286 182.11 58.1444 182.179 57.8733C182.352 57.3288 181.949 55.9493 181.11 55.7569C180.272 55.5645 179.322 55.2413 179.322 55.2413C179.322 55.2413 179.228 55.2586 179.091 55.2778L178.976 55.2413C178.775 55.2783 178.572 55.3034 178.368 55.3163C178.192 55.3226 178.018 55.2652 177.88 55.1547C177.59 54.8392 175.252 54.237 174.819 54.237C174.386 54.237 173.144 53.6598 173.144 53.6598L171.906 52.7132C171.558 52.4477 170.914 51.3664 170.819 51.2144L170.808 51.1932C170.702 50.9489 170.614 50.6968 170.546 50.439C170.969 49.9974 171.329 49.5011 171.619 48.9633C171.65 48.9075 171.677 48.8498 171.704 48.794C171.769 48.7929 171.834 48.7825 171.896 48.7632C171.921 48.7632 171.946 48.744 171.971 48.7344C172.264 48.5801 172.484 48.3168 172.585 48.0013C172.606 47.9398 172.625 47.8763 172.64 47.8089C172.64 47.7878 172.64 47.7647 172.654 47.7435C172.667 47.7224 172.673 47.6569 172.681 47.6127C172.688 47.5684 172.69 47.5627 172.694 47.5396C172.698 47.5165 172.708 47.453 172.713 47.4088C172.719 47.3645 172.713 47.3607 172.713 47.3376C172.713 47.2818 172.727 47.2279 172.735 47.174C172.754 46.9706 172.784 46.7683 172.825 46.568C172.998 45.7984 173.465 45.1327 173.798 44.4131C173.846 44.3112 173.89 44.2053 173.931 44.0995C173.971 43.9937 174.011 43.8686 174.044 43.7513L174.073 43.6435C174.094 43.5589 174.113 43.4723 174.131 43.3857C174.131 43.3472 174.146 43.3088 174.152 43.2703C174.171 43.151 174.188 43.0317 174.198 42.9105C174.26 42.2234 174.162 41.5312 173.911 40.8884C173.694 40.3497 173.373 39.8648 173.154 39.3261C172.821 38.5104 172.735 37.5945 172.329 36.8096C171.65 35.5051 170.05 34.8529 168.735 35.3435C168.106 35.5763 167.562 36.0303 166.926 36.2343C166.072 36.5056 165.161 36.3016 164.278 36.1785C163.396 36.0554 162.419 36.0457 161.709 36.6229C160.892 37.2867 160.667 38.5354 159.9 39.2646C159.579 39.5705 159.177 39.7667 158.837 40.0495C158.598 40.2412 158.414 40.4928 158.304 40.7787C158.304 40.7999 158.291 40.8191 158.285 40.8403C158.279 40.8615 158.271 40.8884 158.266 40.9134C158.26 40.9384 158.254 40.9711 158.25 41C158.246 41.0288 158.25 41.0404 158.25 41.0596C158.246 41.1109 158.246 41.1623 158.25 41.2135C158.256 41.2621 158.264 41.3103 158.275 41.3578C158.275 41.3713 158.275 41.3848 158.275 41.3982C158.275 41.4117 158.298 41.4771 158.312 41.5175C158.311 41.5252 158.311 41.5329 158.312 41.5406C158.327 41.5849 158.344 41.6272 158.362 41.6714L158.391 41.7369L158.414 41.7907C158.526 42.0024 158.616 42.2256 158.681 42.4564C158.717 42.6025 158.708 42.756 158.656 42.897C158.578 43.0567 158.468 43.1992 158.335 43.3165C157.761 43.9142 157.317 44.6252 157.033 45.404C157 45.4925 156.968 45.581 156.939 45.6733L156.979 45.6829C157.062 45.7081 157.146 45.7268 157.231 45.7387C157.279 45.7387 157.327 45.7503 157.377 45.7541C157.574 45.7646 157.772 45.749 157.966 45.708C158.014 45.6983 158.064 45.6868 158.112 45.6733C158.31 45.6186 158.503 45.5472 158.689 45.4598C158.689 45.5175 158.689 45.5771 158.689 45.6348C158.689 45.6926 158.689 45.7003 158.689 45.733C158.691 47.0015 159.046 48.2444 159.715 49.322C160.383 50.3997 161.339 51.2696 162.475 51.8339C162.475 51.8955 162.492 51.959 162.5 52.0263C162.507 52.0936 162.513 52.1302 162.519 52.1821L162.442 52.1071C162.442 52.1071 161.921 51.8493 161.43 52.5939C160.94 53.3385 160.017 53.6848 160.017 53.6848C160.017 53.6848 154.764 54.5159 154.562 55.2047L152.109 55.3471C152.109 55.3471 151.242 55.4625 151.147 57.2711C151.053 59.0796 150.599 59.2508 150.599 59.2508C150.599 59.2508 149.59 61.0286 149.676 61.9444C149.763 62.8602 148.907 63.322 148.907 63.322L148.792 64.9554C148.792 64.9554 147.83 64.8131 147.579 65.9309C147.327 67.0487 146.858 67.5663 146.858 67.5663C146.858 67.5663 145.269 68.8861 145.183 70.004L144.202 70.6062C144.202 70.6062 141.922 70.0905 141.403 69.1728L141.243 69.0227C141.238 69.0155 141.233 69.0077 141.23 68.9996C141.229 69.0035 141.229 69.0074 141.23 69.0112C140.887 68.688 140.164 68.0146 140.268 68.1685C140.336 68.3127 140.352 68.4755 140.314 68.6302L140.145 68.4378L139.691 67.9338C139.691 67.9338 136.005 64.4706 133.84 64.2051C133.811 64.1493 133.673 63.6048 133.304 63.9454C132.997 64.2258 132.752 64.5668 132.583 64.9468C132.415 65.3268 132.327 65.7376 132.325 66.1533C132.323 66.569 132.407 66.9806 132.572 67.3622C132.737 67.7438 132.979 68.0871 133.283 68.3705L136.734 71.597L136.822 71.6624L137.565 72.6244C137.44 72.9246 137.334 73.2151 137.247 73.4806C137.247 73.4806 137.247 73.4979 137.238 73.5056C137.22 73.5633 137.201 73.6172 137.184 73.6711L137.167 73.7288C137.151 73.7827 137.134 73.8365 137.119 73.8866C137.103 73.9366 137.101 73.95 137.092 73.9808C137.082 74.0116 137.092 74.0174 137.076 74.0347C136.996 74.3233 136.942 74.5446 136.915 74.6677L136.722 74.608L136.915 74.6888C136.915 74.6985 136.915 74.71 136.915 74.7196L136.903 74.7793L137.08 74.8562C138.092 75.2968 143.139 77.5113 143.398 77.848C143.687 78.2194 145.59 79.3102 147.323 78.3925C149.055 77.4748 149.438 76.0683 149.438 76.0683C149.438 76.0683 151.111 73.7461 151.168 73.4017C151.226 73.0573 152.526 72.6552 152.526 72.6552C152.526 72.6552 152.641 76.5032 151.978 77.9038C151.315 79.3045 150.072 85.5343 150.072 85.5343C150.153 85.5181 150.236 85.5129 150.319 85.5189C150.272 85.744 150.246 85.8787 150.246 85.8787C150.347 85.8604 150.45 85.8604 150.551 85.8787C150.459 86.5867 149.928 89.8729 149.928 89.8729C149.928 89.8729 149.755 91.364 149.467 91.8796C149.178 92.3952 149.15 95.0926 149.15 95.0926L148.688 97.0416C148.741 97.1567 148.799 97.2691 148.863 97.3783C148.863 97.3783 149.359 98.4789 150.192 99.0964C150.154 99.4029 150.075 99.7031 149.959 99.9892C149.778 100.424 149.699 100.895 149.728 101.365C149.728 101.365 149.238 103.574 149.296 104.205C149.353 104.836 148.978 106.384 148.978 106.384L148.442 111.36C148.442 111.36 148.096 115.691 148.269 116.868C148.442 118.046 148.152 119.648 148.152 119.648C148.152 119.648 148.498 123.062 148.411 123.435C148.325 123.808 147.892 125.413 148.152 126.303C148.411 127.194 148.269 129.63 148.269 129.63C148.269 129.63 148.442 132.841 148.642 133.874C148.842 134.907 148.584 136.227 148.584 136.227C148.584 136.227 148.392 138.434 148.296 138.434C148.2 138.434 147.459 139.954 148.988 141.447C150.517 142.94 149.565 142.707 149.565 142.707C149.565 142.707 148.353 142.105 148.496 143.338C148.634 144.512 148.825 144.206 148.842 144.173L148.553 145.116L148.746 145.145L148.578 145.337C148.405 145.556 148.212 145.759 148.002 145.941C147.654 146.199 147.617 146.773 147.617 146.773C147.617 146.773 145.483 149.097 143.491 150.272C142.443 150.892 141.539 151.415 141.145 151.848C140.789 152.233 140.847 152.552 141.585 152.797C143.145 153.312 145.885 153.566 147.848 152.912C149.018 152.521 150.07 151.84 150.907 150.932C150.907 150.932 152.149 150.301 153.362 150.53C154.576 150.759 156.998 149.183 156.998 149.183L156.954 148.775L156.825 147.604C156.744 147.505 156.684 147.39 156.649 147.267C156.614 147.144 156.606 147.015 156.623 146.888C156.638 146.541 156.603 146.194 156.522 145.857C156.502 145.743 156.479 145.63 156.458 145.524L156.679 145.484C156.679 145.484 156.393 144.019 156.912 143.733C157.431 143.446 157.285 139.692 157.285 139.692C157.285 139.692 156.623 138.832 156.275 138.69C155.927 138.548 156.247 136.766 156.306 136.537C156.366 136.308 156.825 131.862 156.825 131.862C156.825 131.862 156.652 130.457 156.883 129.855C157.114 129.253 156.606 126.944 156.606 126.944C156.606 126.944 156.433 126.657 156.752 126.313C157.071 125.969 156.945 122.9 156.945 122.9C156.945 122.9 156.918 121.351 156.918 120.949C156.918 120.547 157.264 119.085 157.581 118.598C157.898 118.111 157.696 116.589 157.696 116.589L157.714 116.476C157.714 116.432 157.729 116.378 157.741 116.312L157.766 116.16C157.906 115.315 158.097 114.479 158.337 113.657C158.721 112.453 159.144 110.331 159.144 110.331L161.836 103.327L161.867 103.245C161.867 103.245 163.107 105.54 163.107 107.67C163.107 107.67 163.424 110.223 163.338 110.912C163.251 111.6 163.594 114.823 163.594 114.823C163.594 114.823 163.969 119.469 163.969 119.671C163.969 119.873 164.43 123.458 164.72 124.002C165.011 124.547 164.43 126.211 164.257 126.382C164.084 126.554 164.315 130.771 164.315 130.771C164.315 130.771 163.882 134.097 163.795 134.786C163.709 135.475 163.363 138.115 163.651 139.146C163.94 140.177 163.824 140.322 163.824 140.322C163.824 140.322 164.865 141.384 164.257 141.476C164.036 141.524 163.828 141.619 163.647 141.754C163.466 141.889 163.315 142.062 163.206 142.26C163.097 142.458 163.031 142.677 163.013 142.902C162.996 143.128 163.026 143.355 163.103 143.567C163.463 144.619 163.887 145.647 164.374 146.646C164.374 146.646 164.553 146.605 164.851 146.546V146.886L164.886 148.595C164.886 148.595 165.078 150.23 164.972 150.603C164.888 150.876 164.78 152.162 164.717 152.833C164.695 153.078 164.684 153.241 164.684 153.241C164.684 153.241 164.684 154.761 167.887 154.303C171.091 153.845 171.667 152.583 171.667 152.583C171.667 152.583 171.667 152.523 171.691 152.425C171.739 152.135 171.842 151.519 171.927 151.177C172.042 150.717 171.004 148.652 171.004 148.652C171.004 148.652 170.831 147.248 170.541 146.932C170.422 146.75 170.343 146.545 170.31 146.33C170.283 146.215 170.26 146.093 170.241 145.976C170.312 145.985 170.384 145.998 170.454 146.015C170.454 146.015 170.281 145.01 170.946 144.695C171.612 144.379 171.437 143.721 171.35 143.433C171.264 143.144 171.61 141.539 171.61 141.539C171.563 141.38 171.56 141.211 171.601 141.05C171.641 140.889 171.724 140.742 171.84 140.624C172.246 140.22 172.562 137.411 172.562 137.411L172.619 126.569C172.619 126.569 172.823 124.645 172.592 123.875C172.362 123.106 172.129 121.611 172.446 121.209C172.763 120.807 172.475 118.944 172.475 118.944C172.475 118.944 172.475 115.014 172.91 114.04C173.344 113.066 173.198 106.898 173.198 106.898L173.311 102.858C173.311 102.858 174.256 101.965 174.032 97.311C175.038 97.2475 176.173 97.2109 176.34 97.3495C176.657 97.6092 178.707 98.9271 179.918 98.096C180.178 97.9805 181.36 96.9781 181.36 96.9781L180.853 88.378C181.17 88.857 181.362 89.1764 181.362 89.1764C181.362 87.972 184.767 84.0702 184.767 84.0702C184.767 84.0702 187.942 79.9702 188.634 79.4815C189.326 78.9928 190.684 76.4127 190.684 76.4127C190.884 75.9206 191.116 75.4418 191.378 74.9794C191.707 74.4503 190.667 73.0727 190.782 72.7572ZM183.333 75.7663C182.468 75.8529 180.641 77.8326 180.62 78.2674C180.607 78.4945 180.414 78.7985 180.235 79.037C180.222 78.8639 180.207 78.6869 180.193 78.5079C179.989 75.9741 179.768 72.8861 179.868 72.5859C180.043 72.0703 179.984 69.7481 179.984 69.7481L180.014 69.7038C180.591 71.5027 182.404 73.6249 182.404 73.6249C182.404 73.6249 182.722 74.5426 183.097 74.5715C183.471 74.6003 183.333 75.7663 183.333 75.7663Z" fill="url(#paint0_linear_2:3236)"/>
<path d="M137.059 75.114C137.059 75.114 138.111 69.5922 141.497 69.5634L143.971 74.658L142.322 75.797C142.322 75.797 138.738 75.9106 137.059 75.114Z" fill="#65617D"/>
<path opacity="0.1" d="M143.971 74.6581L142.322 75.7971C142.322 75.7971 139.799 75.8779 137.995 75.4335C137.674 75.3572 137.36 75.2502 137.059 75.1141C137.059 75.1141 137.059 75.0833 137.078 75.0256C137.078 75.0256 137.078 75.0121 137.078 75.0044C137.233 74.3115 137.448 73.633 137.718 72.9766C137.824 72.7284 137.942 72.4725 138.068 72.2166C138.565 71.2546 139.261 70.3273 140.214 69.8636C140.567 69.6904 140.951 69.5903 141.343 69.5692H141.443H141.493L141.547 69.6827L142.383 71.4028L143.971 74.6581Z" fill="black"/>
<path d="M172.075 97.5996C172.075 97.5996 175.632 97.259 175.944 97.5149C176.255 97.7708 178.276 99.0791 179.472 98.2537C180.668 97.4283 179.87 94.5539 179.87 94.4404C179.87 94.3269 179.757 90.2557 179.757 90.2557L177.622 87.3813L174.95 82.3443L169.489 81.8018L169.631 89.8017L169.602 93.8997L172.075 97.5996Z" fill="#65617D"/>
<path opacity="0.1" d="M172.075 97.5996C172.075 97.5996 175.632 97.259 175.944 97.5149C176.255 97.7708 178.276 99.0791 179.472 98.2537C180.668 97.4283 179.87 94.5539 179.87 94.4404C179.87 94.3269 179.757 90.2557 179.757 90.2557L177.622 87.3813L174.95 82.3443L169.489 81.8018L169.631 89.8017L169.602 93.8997L172.075 97.5996Z" fill="black"/>
<path d="M140.785 69.4171C140.785 69.4171 140.501 72.8899 138.34 72.9456C138.34 72.9456 137.726 72.5762 136.901 71.9606C135.002 70.5388 131.989 67.8048 132.821 65.2613C134.015 61.6192 139.818 68.3396 139.818 68.3396L140.262 68.8399L140.785 69.4171Z" fill="#FBBEBE"/>
<path opacity="0.1" d="M140.785 69.4172C140.785 69.4172 140.501 72.8899 138.339 72.9457C138.339 72.9457 137.726 72.5763 136.901 71.9607L136.719 71.724C137.085 71.9154 137.49 72.0244 137.903 72.0434C138.228 72.0564 138.549 71.97 138.824 71.7957C139.099 71.6214 139.314 71.3676 139.441 71.0679C139.669 70.6214 139.868 70.1614 140.039 69.6904C140.144 69.4159 140.219 69.1307 140.262 68.84L140.785 69.4172Z" fill="black"/>
<path d="M139.847 75.7124L139.361 75.0852L137.722 72.9688L136.888 71.8894C137.254 72.0818 137.659 72.1909 138.072 72.2088C138.617 72.2223 139.226 72.0164 139.611 71.2353C139.838 70.7879 140.037 70.3273 140.209 69.8558C140.478 69.0862 140.474 68.7014 140.378 68.5609C140.282 68.4205 140.982 69.0766 141.318 69.396L141.33 69.4075L141.487 69.5556L141.545 69.6711L142.37 71.3199C142.37 71.3199 142.37 71.343 142.37 71.3892C142.451 71.9183 142.729 75.241 139.847 75.7124Z" fill="#E7EFFD"/>
<path d="M156.887 148.976C156.887 148.976 154.497 150.542 153.303 150.322C152.109 150.103 150.884 150.722 150.884 150.722C150.06 151.622 149.022 152.298 147.867 152.687C145.944 153.341 143.233 153.083 141.697 152.571C140.97 152.329 140.91 152.017 141.26 151.631C141.645 151.2 142.541 150.682 143.568 150.066C145.531 148.9 147.634 146.603 147.634 146.603C147.634 146.603 147.663 146.026 148.005 145.78C148.216 145.598 148.409 145.397 148.582 145.179C148.888 144.818 149.174 144.441 149.174 144.441L156.204 144.645C156.204 144.645 156.323 145.151 156.418 145.668C156.498 146.004 156.531 146.349 156.516 146.694C156.498 146.819 156.505 146.946 156.538 147.069C156.572 147.191 156.629 147.305 156.708 147.404L156.835 148.558L156.887 148.976Z" fill="#65617D"/>
<path d="M171.592 150.94C171.508 151.28 171.4 151.89 171.36 152.177L171.335 152.335C171.335 152.335 170.758 153.587 167.61 154.043C164.463 154.499 164.453 152.989 164.453 152.989C164.453 152.989 164.465 152.827 164.484 152.583C164.54 151.917 164.653 150.642 164.738 150.37C164.849 150.001 164.651 148.377 164.651 148.377L164.618 146.682L164.593 145.505L169.829 144.962C169.861 145.354 169.918 145.743 169.998 146.128C170.03 146.342 170.108 146.546 170.227 146.726C170.512 147.04 170.681 148.435 170.681 148.435C170.681 148.435 171.706 150.484 171.592 150.94Z" fill="#65617D"/>
<path opacity="0.1" d="M156.204 144.645C156.204 144.645 156.323 145.151 156.418 145.668C155.658 145.809 152.339 146.384 151.511 145.982C150.57 145.526 148.552 145.27 148.552 145.27L148.584 145.155C148.89 144.793 149.176 144.416 149.176 144.416L156.204 144.645Z" fill="black"/>
<path opacity="0.1" d="M169.998 146.128C168.672 145.903 165.768 146.447 164.615 146.682L164.59 145.505L169.825 144.962C169.859 145.354 169.917 145.743 169.998 146.128Z" fill="black"/>
<path d="M172.95 102.979L172.837 106.992C172.837 106.992 172.979 113.113 172.552 114.08C172.125 115.048 172.125 118.948 172.125 118.948C172.125 118.948 172.41 120.797 172.096 121.195C171.783 121.593 172.012 123.073 172.239 123.843C172.465 124.612 172.267 126.519 172.267 126.519L172.21 137.278C172.21 137.278 171.898 140.066 171.498 140.466C171.384 140.584 171.302 140.73 171.262 140.89C171.222 141.05 171.226 141.218 171.271 141.376C171.271 141.376 170.931 142.969 171.016 143.256C171.1 143.542 171.271 144.194 170.618 144.506C169.964 144.818 170.133 145.816 170.133 145.816C168.57 145.445 164.132 146.444 164.132 146.444C163.652 145.454 163.234 144.437 162.88 143.396C162.804 143.185 162.773 142.961 162.79 142.737C162.807 142.514 162.872 142.297 162.98 142.1C163.088 141.904 163.236 141.732 163.415 141.598C163.594 141.463 163.8 141.369 164.019 141.32C164.615 141.233 163.592 140.181 163.592 140.181C163.592 140.181 163.705 140.039 163.421 139.015C163.136 137.991 163.476 135.359 163.563 134.686C163.649 134.013 164.074 130.702 164.074 130.702C164.074 130.702 163.847 126.519 164.019 126.348C164.19 126.176 164.757 124.526 164.474 123.985C164.192 123.444 163.732 119.887 163.732 119.687C163.732 119.487 163.365 114.877 163.365 114.877C163.365 114.877 163.023 111.66 163.109 110.977C163.196 110.294 162.88 107.762 162.88 107.762C162.88 105.646 161.657 103.377 161.657 103.377L161.627 103.46L158.99 110.409C158.99 110.409 158.564 112.514 158.194 113.709C157.961 114.521 157.775 115.347 157.639 116.181L157.614 116.333C157.614 116.397 157.594 116.451 157.589 116.493L157.571 116.608C157.571 116.608 157.764 118.117 157.456 118.602C157.148 119.086 156.802 120.537 156.802 120.935C156.802 121.334 156.831 122.871 156.831 122.871C156.831 122.871 156.945 125.917 156.639 126.259C156.333 126.602 156.495 126.884 156.495 126.884C156.495 126.884 157.006 129.193 156.779 129.788C156.552 130.382 156.723 131.779 156.723 131.779C156.723 131.779 156.268 136.193 156.212 136.42C156.156 136.647 155.841 138.413 156.183 138.555C156.525 138.698 157.177 139.55 157.177 139.55C157.177 139.55 157.321 143.281 156.808 143.563C156.295 143.846 156.579 145.295 156.579 145.295C156.579 145.295 152.457 146.091 151.518 145.635C150.58 145.179 148.559 144.924 148.559 144.924L148.842 143.989C148.825 144.021 148.636 144.325 148.502 143.159C148.361 141.936 149.555 142.532 149.555 142.532C149.555 142.532 150.494 142.761 148.978 141.282C147.463 139.802 148.209 138.292 148.296 138.292C148.382 138.292 148.582 136.102 148.582 136.102C148.582 136.102 148.838 134.792 148.638 133.766C148.438 132.741 148.269 129.553 148.269 129.553C148.269 129.553 148.411 127.134 148.155 126.253C147.9 125.372 148.325 123.775 148.411 123.406C148.498 123.036 148.146 119.658 148.146 119.658C148.146 119.658 148.43 118.065 148.259 116.899C148.088 115.733 148.43 111.433 148.43 111.433L148.942 106.481C148.942 106.481 149.311 104.941 149.255 104.316C149.2 103.691 149.684 101.499 149.684 101.499C149.655 101.033 149.733 100.566 149.911 100.133C150.196 99.5562 150.309 97.6861 150.309 97.6861L153.041 91.4235L154.387 85.9017L172.448 85.7305C172.448 85.7305 172.515 86.2095 172.625 87.0773C172.735 87.945 172.888 89.234 173.06 90.8252C173.217 92.2701 173.39 93.9689 173.558 95.8602C174.104 101.898 172.95 102.979 172.95 102.979Z" fill="#3F3D56"/>
<path d="M171.279 53.1402L167.068 57.6385C167.068 57.6385 161.665 55.474 162.234 54.7352C162.453 54.4485 162.426 53.5442 162.292 52.5476C162.1 50.97 161.665 49.1556 161.665 49.1556C161.665 49.1556 171.108 47.6165 170.318 49.2114C170.027 49.7886 170.077 50.4736 170.258 51.1027C170.487 51.8323 170.832 52.5203 171.279 53.1402Z" fill="#FBBEBE"/>
<path opacity="0.1" d="M170.312 49.2155C170.021 49.7927 169.883 49.8543 170.064 50.4834C168.829 51.8052 167.258 53.2558 165.305 53.2558C164.259 53.2574 163.228 53.0157 162.292 52.5497C162.1 50.9721 161.665 49.1578 161.665 49.1578C161.665 49.1578 171.108 47.6186 170.312 49.2155Z" fill="black"/>
<path d="M172.077 46.3082C172.047 48.0853 171.32 49.7796 170.054 51.0258C168.787 52.2719 167.082 52.9703 165.306 52.9703C163.529 52.9703 161.824 52.2719 160.558 51.0258C159.291 49.7796 158.565 48.0853 158.535 46.3082C158.535 46.2755 158.535 46.2428 158.535 46.212C158.547 44.4153 159.273 42.6973 160.552 41.4359C161.185 40.8113 161.935 40.3176 162.758 39.983C163.582 39.6484 164.464 39.4794 165.353 39.4858C166.242 39.4921 167.121 39.6736 167.94 40.0198C168.759 40.3661 169.502 40.8704 170.126 41.5039C170.75 42.1375 171.244 42.8878 171.578 43.7121C171.912 44.5364 172.081 45.4186 172.075 46.3082H172.077Z" fill="#FBBEBE"/>
<path opacity="0.1" d="M173.056 91.0003C172.16 91.0003 169.174 91.033 165.836 91.0849H165.795L164.693 91.1042H164.659C160.702 91.1677 156.8 90.3942 155.237 90.5405C151.911 90.8521 156.433 87.4621 156.433 87.4621C158.913 88.0652 161.464 88.3241 164.015 88.2317L164.976 88.1817C167.999 88.0104 171.039 87.7257 172.627 87.2485C172.733 88.1297 172.885 89.4092 173.056 91.0003Z" fill="black"/>
<path d="M173.056 90.829C172.16 90.829 169.174 90.8618 165.836 90.9137H165.795L164.693 90.9329H164.659C160.702 90.9964 156.8 90.223 155.237 90.3692C151.911 90.6828 156.433 87.2909 156.433 87.2909C158.913 87.8939 161.464 88.1529 164.015 88.0605L164.976 88.0104C167.999 87.8392 171.039 87.5544 172.627 87.0792C172.733 87.9604 172.885 89.2341 173.056 90.829Z" fill="#5F5D7E"/>
<path opacity="0.1" d="M163.486 55.0181L158.252 57.4673L154.214 88.7185C154.214 88.7185 156.602 87.6372 157.969 88.3202C159.336 89.0032 163.545 88.3779 163.545 88.3779C163.545 88.3779 166.622 88.2067 167.074 88.5492C167.526 88.8916 172.873 87.1177 172.873 87.1177C172.873 87.1177 173.834 84.9552 173.1 84.6166C172.365 84.2779 173.334 80.9206 173.334 80.9206L172.873 58.3773L171.962 55.474L169.516 53.9945L167.016 55.9858L165.822 56.1571L163.486 55.0181Z" fill="black"/>
<path d="M163.486 54.6776L158.252 57.1249L154.214 88.378C154.214 88.378 156.602 87.2967 157.969 87.9797C159.336 88.6628 163.545 88.0355 163.545 88.0355C163.545 88.0355 166.622 87.8662 167.074 88.2068C167.526 88.5473 172.877 86.783 172.877 86.783C172.877 86.783 173.838 84.6205 173.104 84.2819C172.369 83.9432 173.334 80.5763 173.334 80.5763L172.873 58.0349L171.962 55.1336L169.516 53.6521L167.016 55.6453L165.822 55.8166L163.486 54.6776Z" fill="#E7EFFD"/>
<path opacity="0.1" d="M163.399 56.1282C163.399 56.1282 164.907 57.9213 164.88 58.2926C164.853 58.664 164.793 59.5452 164.793 59.5452L163.655 61.8539C163.655 61.8539 163.03 64.7284 163.03 65.3267C163.03 65.9251 162.034 71.0987 162.034 71.0987L160.836 79.0697L159.329 89.5169L160.867 92.1624L162.686 90.6232L165.105 72.0068L165.616 68.3358C165.616 68.3358 166.157 61.7327 166.157 61.0497C166.157 60.3667 165.845 58.5736 165.845 58.5736C165.845 58.5736 166.214 56.8651 167.751 56.4572C169.287 56.0493 167.637 56.3706 167.637 56.3706L166.755 55.6606L165.986 55.9723C165.986 55.9723 163.855 55.3316 163.399 56.1282Z" fill="black"/>
<path d="M163.228 55.9589C163.228 55.9589 164.738 57.7521 164.709 58.1215C164.68 58.4909 164.622 59.374 164.622 59.374L163.486 61.6827C163.486 61.6827 162.859 64.5572 162.859 65.1555C162.859 65.7539 161.863 70.9275 161.863 70.9275L160.669 78.8966L159.161 89.3438L160.7 91.9912L162.521 90.452L164.938 71.8375L165.451 68.1685C165.451 68.1685 165.991 61.5654 165.991 60.8824C165.991 60.1994 165.68 58.4062 165.68 58.4062C165.68 58.4062 166.049 56.6977 167.585 56.2995C169.122 55.9012 167.472 56.2148 167.472 56.2148L166.589 55.5029L165.82 55.8165C165.82 55.8165 163.684 55.1605 163.228 55.9589Z" fill="white"/>
<path opacity="0.1" d="M162.234 52.969C162.234 52.969 162.005 53.1402 161.95 54.2792C161.894 55.4182 161.096 57.979 161.096 57.979C161.096 57.979 164.055 55.93 165.534 56.157L162.234 52.969Z" fill="black"/>
<path d="M162.234 52.6285C162.234 52.6285 162.005 52.7979 161.95 53.9369C161.894 55.0758 161.096 57.6367 161.096 57.6367C161.096 57.6367 164.055 55.5876 165.534 55.8166L162.234 52.6285Z" fill="#E7EFFD"/>
<path opacity="0.1" d="M170.312 52.059L165.643 56.157C165.643 56.157 169.57 58.4908 170.081 59.0603C170.593 59.6298 171.104 53.4808 171.104 53.4808L170.312 52.059Z" fill="black"/>
<path d="M170.483 51.7166L165.818 55.8165C165.818 55.8165 169.743 58.1503 170.258 58.7198C170.773 59.2893 171.281 53.1403 171.281 53.1403L170.483 51.7166Z" fill="#E7EFFD"/>
<path opacity="0.1" d="M162.403 52.9691C162.403 52.9691 161.892 52.7132 161.409 53.454C161.054 53.9368 160.571 54.3112 160.015 54.5352C160.015 54.5352 154.837 55.3606 154.631 56.0436L152.213 56.186C152.213 56.186 151.359 56.2995 151.274 58.0927C151.19 59.8858 150.734 60.0571 150.734 60.0571C150.734 60.0571 149.738 61.8213 149.824 62.7314C149.911 63.6414 149.055 64.0993 149.055 64.0993L152.611 73.3498C152.611 73.3498 152.726 77.1632 152.07 78.558C151.415 79.9529 150.194 86.1289 150.194 86.1289C150.194 86.1289 150.705 86.0154 150.676 86.3559C150.647 86.6965 150.069 90.4271 150.069 90.4271C150.069 90.4271 149.897 91.9066 149.613 92.4203C149.328 92.934 149.299 95.6064 149.299 95.6064L148.846 97.5419C148.846 97.5419 149.926 99.9623 151.576 99.6198C153.226 99.2774 156.212 92.8186 156.212 92.8186L158.119 85.8441L159.598 78.9563L160.025 74.2887L160.707 63.957L161.703 57.1249C161.703 57.1249 162.803 53.4482 162.403 52.9691Z" fill="black"/>
<path d="M162.234 52.6285C162.234 52.6285 161.721 52.3727 161.238 53.1115C160.883 53.595 160.4 53.9695 159.844 54.1927C159.844 54.1927 154.668 55.0181 154.46 55.7011L152.041 55.8435C152.041 55.8435 151.19 55.959 151.103 57.7521C151.017 59.5452 150.563 59.7146 150.563 59.7146C150.563 59.7146 149.567 61.4808 149.653 62.3908C149.74 63.3009 148.884 63.7568 148.884 63.7568L152.441 73.0073C152.441 73.0073 152.555 76.8207 151.901 78.2155C151.247 79.6104 150.022 85.7883 150.022 85.7883C150.022 85.7883 150.534 85.6729 150.507 86.0153C150.48 86.3578 149.88 90.0846 149.88 90.0846C149.88 90.0846 149.709 91.566 149.424 92.0778C149.14 92.5896 149.113 95.2658 149.113 95.2658L148.657 97.2014C148.657 97.2014 149.738 99.6198 151.388 99.2793C153.037 98.9387 156.029 92.4761 156.029 92.4761L157.935 85.5036L159.413 78.6157L159.84 73.9462L160.523 63.6145L161.519 56.7843C161.519 56.7843 162.632 53.1115 162.234 52.6285Z" fill="#65617D"/>
<path opacity="0.1" d="M143.971 74.658L142.322 75.797C142.322 75.797 139.799 75.8778 137.995 75.4334L137.078 75.0255L136.886 74.9447L137.078 75.0043C138.03 75.2872 138.774 75.2814 139.357 75.0851C141.691 74.2982 141.433 70.4407 141.343 69.5691C141.343 69.4806 141.328 69.4248 141.324 69.4036C141.323 69.3998 141.323 69.3959 141.324 69.3921L141.337 69.4152C141.369 69.4677 141.405 69.5179 141.445 69.5652C141.478 69.6018 141.512 69.6403 141.549 69.6768L142.374 71.3257C142.374 71.3257 142.374 71.3488 142.374 71.395L143.971 74.658Z" fill="black"/>
<path d="M149.684 63.5298L148.886 63.7568L148.773 65.3787C148.773 65.3787 147.834 65.2364 147.579 66.3407C147.323 67.4451 146.867 67.9646 146.867 67.9646C146.867 67.9646 145.302 69.2729 145.217 70.383L144.256 70.9814C144.256 70.9814 142.008 70.4677 141.497 69.5576C141.497 69.5576 142.522 76.9014 137.059 75.1083C137.059 75.1083 143.175 77.7826 143.46 78.154C143.745 78.5253 145.621 79.6046 147.329 78.6946C149.036 77.7845 149.405 76.3858 149.405 76.3858C149.405 76.3858 151.055 74.077 151.111 73.7384C151.167 73.3998 152.457 72.9977 152.457 72.9977L154.903 67.0776L149.684 63.5298Z" fill="#65617D"/>
<path opacity="0.1" d="M169.658 55.4741L170.483 51.7166C170.483 51.7166 170.852 52.9402 171.223 53.225L172.446 54.1658C172.446 54.1658 173.669 54.7334 174.096 54.7334C174.523 54.7334 176.826 55.3317 177.111 55.6453C177.395 55.9589 178.534 55.73 178.534 55.73C178.534 55.73 179.472 56.0436 180.297 56.2417C181.122 56.4399 181.52 57.8079 181.349 58.3581C181.279 58.6274 181.279 58.9099 181.349 59.1792C181.419 59.4484 181.555 59.6955 181.747 59.8973C182.089 60.2398 182.26 61.3499 182.26 61.3499C182.677 61.4876 183.022 61.7842 183.221 62.1753C183.506 62.8006 183.414 64.1666 183.414 64.1666L179.184 70.1444C179.184 70.1444 179.239 72.4532 179.07 72.9631C178.901 73.4729 179.666 82.1847 179.666 82.1847L180.549 97.1552C180.549 97.1552 179.382 98.1518 179.126 98.2653C178.87 98.3788 178.614 92.9724 178.614 92.7723C178.614 92.5722 172.044 82.9235 172.044 82.9235C172.044 82.9235 171.162 81.5017 171.162 81.1919C171.162 80.8822 170.337 78.0039 170.337 78.0039L169.085 72.4532L169.658 55.4741Z" fill="black"/>
<path d="M183.777 63.8376C183.777 64.03 183.777 64.1647 183.777 64.1647L179.547 70.129C179.547 70.129 179.605 72.4378 179.436 72.9457C179.336 73.2439 179.553 76.3069 179.755 78.8235C179.897 80.6378 180.032 82.1674 180.032 82.1674L180.407 88.5165L180.912 97.1359C180.912 97.1359 179.747 98.1325 179.491 98.2461C179.236 98.3596 178.98 92.9532 178.98 92.7531C178.98 92.553 172.408 82.9062 172.408 82.9062C172.408 82.9062 171.525 81.4805 171.525 81.1746C171.525 80.8687 170.7 77.9866 170.7 77.9866L169.45 72.4359L170.018 55.4722L170.483 51.7166C170.483 51.7166 171.194 52.9421 171.564 53.225L172.787 54.1639C172.787 54.1639 174.009 54.741 174.436 54.741C174.863 54.741 177.169 55.3375 177.453 55.6511C177.738 55.9647 178.874 55.7357 178.874 55.7357C178.874 55.7357 179.812 56.0494 180.637 56.2475C181.462 56.4457 181.862 57.8136 181.691 58.3639C181.621 58.6332 181.621 58.9158 181.691 59.1851C181.76 59.4544 181.897 59.7015 182.089 59.9031C182.429 60.2436 182.6 61.3538 182.6 61.3538C183.017 61.4926 183.362 61.7897 183.562 62.1811C183.766 62.5947 183.785 63.3855 183.777 63.8376Z" fill="#65617D"/>
<path opacity="0.1" d="M149.007 139.669C149.148 139.669 155.122 139.896 155.008 140.864C154.895 141.832 149.007 139.669 149.007 139.669Z" fill="black"/>
<path opacity="0.1" d="M150.344 141.291C150.344 141.291 154.355 141.945 153.301 142.544C152.247 143.142 150.344 141.291 150.344 141.291Z" fill="black"/>
<path opacity="0.1" d="M165.259 139.042C165.259 139.042 171.915 139.619 170.919 140.352C169.923 141.085 167.562 141.205 167.458 141.233C167.355 141.262 165.259 139.042 165.259 139.042Z" fill="black"/>
<path opacity="0.1" d="M164.453 141.974C164.453 141.974 168.151 142.6 168.264 143.321C168.377 144.043 164.453 141.974 164.453 141.974Z" fill="black"/>
<path opacity="0.1" d="M166.501 124.839C166.501 124.839 169.885 125.636 170.085 126.186L166.501 124.839Z" fill="black"/>
<path opacity="0.1" d="M153.443 127.287C153.443 127.287 151.68 127.798 153.387 128.826C155.095 129.853 153.443 127.287 153.443 127.287Z" fill="black"/>
<path opacity="0.1" d="M161.267 99.9334C161.459 99.9334 164.566 98.9099 165.647 99.3562C166.42 99.647 167.238 99.8025 168.064 99.8161L161.267 99.9334Z" fill="black"/>
<path opacity="0.1" d="M161.665 103.177L161.634 103.46L158.99 110.409C158.99 110.409 158.564 112.514 158.194 113.709C157.961 114.522 157.775 115.347 157.639 116.181L159.986 101.613L161.665 103.177Z" fill="black"/>
<path d="M165.795 90.9138L164.693 90.9331H164.659L164.013 88.0644L164.974 88.0125L165.795 90.9138Z" fill="#3F3D56"/>
<path d="M179.216 87.439L178.507 88.0162L176.144 89.9652C176.144 89.9652 169.743 93.3822 167.979 90.1364C166.426 87.2774 173.682 85.236 175.43 84.7916C175.667 84.732 175.801 84.7012 175.801 84.7012L179.216 87.439Z" fill="#FBBEBE"/>
<path opacity="0.1" d="M151.88 59.4587C151.88 59.4587 153.132 60.0359 153.418 60.8248C153.705 61.6136 151.88 59.4587 151.88 59.4587Z" fill="black"/>
<path opacity="0.1" d="M148.011 67.9972C148.011 67.9972 146.19 70.2175 146.931 71.0756C147.671 71.9337 148.011 67.9972 148.011 67.9972Z" fill="black"/>
<path opacity="0.1" d="M180.553 60.7111C180.553 60.7111 178.845 60.8823 178.79 62.3618L180.553 60.7111Z" fill="black"/>
<path opacity="0.1" d="M164.738 84.0509C164.907 83.8797 168.833 78.0732 169.737 78.5869L164.738 84.0509Z" fill="black"/>
<path opacity="0.1" d="M172.077 46.3082C172.079 47.4241 171.803 48.5229 171.275 49.5058L171.225 49.4962C170.796 49.4058 170.573 48.9056 170.245 48.5939C170.043 48.4016 169.786 48.2773 169.51 48.2387C169.234 48.2 168.953 48.2489 168.706 48.3784C168.458 48.5279 168.255 48.7436 168.122 49.0015C167.989 49.2594 167.93 49.5493 167.953 49.8387C167.735 48.9267 167.804 47.959 167.593 47.0451C167.381 46.1312 166.745 45.2077 165.872 45.1923C165.488 45.1923 165.059 45.3289 164.786 45.048C164.622 44.8787 164.593 44.6112 164.466 44.4035C163.844 43.3953 161.946 43.9051 161.171 44.4227C160.396 44.9402 159.498 45.7695 158.535 46.212C158.547 44.4153 159.273 42.6973 160.552 41.4359C161.185 40.8113 161.935 40.3176 162.758 39.983C163.582 39.6484 164.464 39.4794 165.353 39.4858C166.242 39.4921 167.121 39.6736 167.94 40.0198C168.759 40.3661 169.502 40.8704 170.126 41.5039C170.75 42.1375 171.244 42.8878 171.578 43.7121C171.912 44.5364 172.081 45.4186 172.075 46.3082H172.077Z" fill="black"/>
<path d="M164.469 44.2342C164.592 44.44 164.624 44.7075 164.788 44.8768C165.059 45.1596 165.499 45.0134 165.874 45.0211C166.747 45.0365 167.384 45.96 167.595 46.8739C167.807 47.7878 167.737 48.7555 167.955 49.6675C167.932 49.3778 167.991 49.0877 168.125 48.8296C168.258 48.5716 168.461 48.3561 168.71 48.2072C168.957 48.0777 169.238 48.0288 169.514 48.0675C169.79 48.1061 170.047 48.2304 170.248 48.4227C170.577 48.7344 170.8 49.2346 171.229 49.325C171.658 49.4155 172.071 49.0037 172.227 48.5554C172.383 48.1071 172.371 47.6069 172.473 47.1375C172.665 46.2505 173.242 45.5213 173.565 44.6767C173.946 43.6497 173.936 42.5182 173.536 41.4983C173.323 40.9634 173.006 40.4824 172.789 39.9495C172.462 39.1376 172.377 38.2179 171.977 37.4483C171.308 36.1535 169.731 35.507 168.433 35.9938C167.816 36.2246 167.28 36.6749 166.651 36.8769C165.811 37.1482 164.911 36.9442 164.042 36.823C163.173 36.7018 162.209 36.6903 161.509 37.2617C160.704 37.9216 160.485 39.1606 159.727 39.8841C159.41 40.188 159.015 40.3824 158.681 40.6536C158.346 40.9249 158.056 41.3521 158.104 41.808C158.154 42.3968 158.731 42.9316 158.517 43.478C158.441 43.6365 158.334 43.7784 158.202 43.8956C157.569 44.5599 157.098 45.362 156.825 46.239C158.346 46.7161 159.994 45.0365 161.186 44.2419C161.95 43.7359 163.846 43.2241 164.469 44.2342Z" fill="#7C5C5C"/>
<path opacity="0.1" d="M179.216 87.439L178.507 88.0162C177.882 86.9773 175.319 84.8993 175.319 84.8993L175.43 84.7916C175.667 84.732 175.801 84.7012 175.801 84.7012L179.216 87.439Z" fill="black"/>
<path d="M179.899 86.3847C179.899 86.3847 179.643 87.0196 179.382 87.566C179.12 88.1124 178.832 88.6127 178.818 88.2067C178.79 87.4102 175.49 84.7339 175.49 84.7339L175.938 84.2991L176.455 83.795L179.899 86.3847Z" fill="#E7EFFD"/>
<path opacity="0.1" d="M180.012 82.1711L180.387 88.5203C179.503 87.1446 177.076 83.6199 175.517 83.7334L179.295 79.3833C179.453 79.2081 179.598 79.0223 179.73 78.8273C179.872 80.6416 180.012 82.1711 180.012 82.1711Z" fill="black"/>
<path opacity="0.1" d="M179.899 86.3847C179.899 86.3847 179.643 87.0196 179.382 87.566C178.39 86.2057 177.026 84.5992 175.938 84.2952L176.455 83.7911L179.899 86.3847Z" fill="black"/>
<path d="M182.743 63.3585L183.768 64.155C183.768 64.155 185.473 64.1839 185.644 65.6077C185.815 67.0314 187.375 67.6855 187.375 67.6855C187.375 67.6855 188.54 68.8515 188.54 69.3921C188.54 69.9328 189.423 70.9005 189.423 70.9871C189.423 71.0737 190.276 72.8091 190.161 73.1208C190.046 73.4325 191.072 74.8004 190.759 75.3122C190.502 75.7721 190.274 76.2476 190.076 76.7359C190.076 76.7359 188.74 79.2987 188.057 79.7816C187.375 80.2645 184.244 84.3357 184.244 84.3357C184.244 84.3357 180.889 88.2067 180.889 89.4015C180.889 89.4015 177.62 83.9374 175.682 84.0798L179.466 79.7239C179.466 79.7239 180.12 79.0139 180.149 78.5868C180.178 78.1597 181.97 76.1953 182.824 76.1106C182.824 76.1106 182.964 74.9428 182.595 74.9139C182.226 74.8851 181.912 73.975 181.912 73.975C181.912 73.975 179.412 71.016 179.38 69.1362C179.347 67.2565 182.743 63.3585 182.743 63.3585Z" fill="#65617D"/>
<path opacity="0.1" d="M184.25 66.0618C184.25 66.0618 181.862 67.828 182.374 68.3955C182.885 68.9631 184.25 66.0618 184.25 66.0618Z" fill="black"/>
<path opacity="0.1" d="M184.364 73.3498C184.364 73.3498 188.801 71.9261 189.257 73.3498H184.364Z" fill="black"/>
<path opacity="0.1" d="M156.887 148.976C156.887 148.976 154.497 150.542 153.303 150.322C152.109 150.103 150.884 150.723 150.884 150.723C150.06 151.622 149.022 152.298 147.867 152.687C145.944 153.341 143.233 153.083 141.697 152.572C140.97 152.329 140.91 152.017 141.26 151.631C142.931 151.964 146.663 152.627 147.669 152.144C148.976 151.517 150.855 150.151 150.855 150.151C150.855 150.151 153.303 149.811 153.643 149.811C153.885 149.811 155.775 149.029 156.843 148.583L156.887 148.976Z" fill="black"/>
<path opacity="0.1" d="M171.36 152.177L171.335 152.335C171.335 152.335 170.758 153.588 167.61 154.044C164.463 154.5 164.453 152.989 164.453 152.989C164.453 152.989 164.465 152.828 164.484 152.583C165.484 152.962 167.664 153.386 171.36 152.177Z" fill="black"/>
<path opacity="0.1" d="M153.061 65.7212C153.061 65.7212 153.061 72.2108 152.505 72.8515C151.949 73.4921 153.061 65.7212 153.061 65.7212Z" fill="black"/>
<path opacity="0.1" d="M178.703 67.8125L179.528 70.1328C179.528 70.1328 179.857 67.8548 178.703 67.8125Z" fill="black"/>
<g opacity="0.1">
<path opacity="0.1" d="M158.59 42.9337C158.798 42.3988 158.252 41.8755 158.181 41.3021C158.109 41.4639 158.078 41.641 158.091 41.8178C158.127 42.2487 158.444 42.6508 158.529 43.051C158.553 43.0138 158.573 42.9745 158.59 42.9337Z" fill="black"/>
<path opacity="0.1" d="M168.031 49.0635C167.827 48.1669 167.887 47.2165 167.679 46.318C167.472 45.4195 166.831 44.4806 165.96 44.4652C165.576 44.4652 165.145 44.6037 164.874 44.3228C164.709 44.1535 164.682 43.8842 164.553 43.6783C163.93 42.6682 162.034 43.18 161.257 43.6975C160.104 44.4671 158.496 46.089 157.004 45.7235C156.933 45.8947 156.868 46.0698 156.812 46.2487C158.333 46.7259 159.981 45.0463 161.173 44.2516C161.942 43.736 163.845 43.2242 164.468 44.2343C164.591 44.4402 164.624 44.7076 164.788 44.8769C165.059 45.1598 165.499 45.0135 165.874 45.0212C166.747 45.0366 167.383 45.9601 167.595 46.874C167.806 47.7879 167.737 48.7557 167.954 49.6677C167.94 49.4632 167.967 49.2579 168.031 49.0635Z" fill="black"/>
<path opacity="0.1" d="M172.308 47.9975C172.154 48.4477 171.748 48.8633 171.31 48.7671C170.871 48.6709 170.658 48.1764 170.331 47.8628C170.128 47.6726 169.871 47.5499 169.596 47.5117C169.32 47.4734 169.04 47.5215 168.793 47.6493C168.556 47.7907 168.361 47.993 168.228 48.2352C168.095 48.4774 168.029 48.7507 168.037 49.0268C168.152 48.6793 168.391 48.3862 168.708 48.2034C168.955 48.0739 169.236 48.025 169.512 48.0637C169.788 48.1023 170.045 48.2265 170.246 48.4189C170.575 48.7305 170.798 49.2308 171.227 49.3212C171.656 49.4116 172.069 48.9999 172.225 48.5516C172.306 48.2854 172.358 48.0113 172.381 47.7339C172.362 47.8233 172.338 47.9113 172.308 47.9975Z" fill="black"/>
<path opacity="0.1" d="M173.646 44.1187C173.327 44.9633 172.746 45.6906 172.554 46.5795C172.515 46.7584 172.492 46.9412 172.471 47.1259C172.663 46.2409 173.24 45.5155 173.561 44.6728C173.703 44.2937 173.792 43.8968 173.825 43.4934C173.781 43.7061 173.721 43.9151 173.646 44.1187Z" fill="black"/>
</g>
<path d="M132.539 64.7292C132.577 64.7292 132.608 64.698 132.608 64.6595C132.608 64.6211 132.577 64.5898 132.539 64.5898C132.5 64.5898 132.469 64.6211 132.469 64.6595C132.469 64.698 132.5 64.7292 132.539 64.7292Z" fill="#E6E8EC"/>
<path opacity="0.1" d="M157.1 154.128C166.269 154.128 173.702 153.369 173.702 152.433C173.702 151.497 166.269 150.738 157.1 150.738C147.932 150.738 140.499 151.497 140.499 152.433C140.499 153.369 147.932 154.128 157.1 154.128Z" fill="white"/>
<path d="M96.0534 41.2481L45.7703 73.8903L78.5847 133.11C78.7381 133.387 78.9471 133.629 79.1986 133.822C79.4501 134.014 79.7387 134.151 80.0461 134.226L109.778 141.484C110.288 141.607 110.824 141.552 111.298 141.327C111.772 141.103 112.154 140.723 112.382 140.25L127.13 109.592L143.293 87.9719L104.937 42.566C103.869 41.3031 102.379 40.4726 100.744 40.2301C99.1084 39.9875 97.441 40.3494 96.0534 41.2481Z" fill="#DCDFED"/>
<path opacity="0.1" d="M143.804 88.2279L143.662 88.4203L134.194 101.086L134.023 101.315L127.641 109.851L115.028 136.077L114.674 136.81L112.893 140.51C112.665 140.983 112.282 141.364 111.808 141.588C111.333 141.813 110.796 141.868 110.286 141.743L80.5537 134.482C80.2462 134.408 79.9575 134.27 79.706 134.078C79.4544 133.886 79.2455 133.643 79.0923 133.366L76.2331 128.216L75.7197 127.289L55.0824 90.0287L54.9055 89.7113L46.2798 74.1463L47.3219 73.4691L55.2227 68.3416L55.4054 68.2224L72.0434 57.4211L73.0932 56.7401L96.561 41.5041C97.9486 40.6037 99.6168 40.2405 101.253 40.4828C102.889 40.7251 104.381 41.5561 105.448 42.8201L122.946 63.5413L123.715 64.4648L136.415 79.4988L136.484 79.5815L142.87 87.1389L143.673 88.0913L143.804 88.2279Z" fill="black"/>
<path opacity="0.1" d="M135.992 79.3257L134.442 90.1L133.975 93.3515L133.707 100.278L133.686 100.818L132.296 137.009C132.283 137.344 132.196 137.673 132.042 137.971C131.887 138.27 131.669 138.531 131.403 138.736C131.137 138.941 130.829 139.085 130.502 139.158C130.174 139.231 129.834 139.231 129.506 139.158L114.52 135.81L114.358 135.773L75.9236 127.19L75.2179 127.033L54.0883 122.311L54.5728 89.7729L54.5882 88.6859L54.7343 78.837L54.8958 67.9666L71.5338 57.1653L72.5837 56.4843C88.016 58.0677 108.54 61.1133 122.444 63.2855L123.213 64.209L135.903 79.243L135.992 79.3257Z" fill="black"/>
<path d="M137.747 66.5504L135.923 79.2487L134.25 90.8772L133.782 94.121L133.515 101.047L132.104 137.778C132.091 138.114 132.004 138.443 131.849 138.741C131.695 139.039 131.477 139.3 131.211 139.505C130.945 139.71 130.637 139.854 130.309 139.927C129.982 140 129.642 140 129.314 139.927L114.166 136.543L75.7313 127.96L53.896 123.081L54.3959 89.4554L54.5421 79.6065L54.7132 68.0858L54.8882 56.236C58.4992 56.0647 64.4406 56.4515 71.5338 57.1653C87.4161 58.7602 109.067 61.9867 123.222 64.2089C131.89 65.5692 137.747 66.5504 137.747 66.5504Z" fill="white"/>
<path opacity="0.1" d="M142.377 86.8831L134.25 90.8715L92.7693 111.227L54.5421 79.6143L46.8144 73.2133L45.7722 73.8905L54.3979 89.4555L53.898 123.081L75.7333 127.96L78.5867 133.111C78.7398 133.388 78.9488 133.63 79.2003 133.822C79.4519 134.014 79.7405 134.152 80.048 134.226L109.78 141.484C110.289 141.607 110.825 141.551 111.299 141.327C111.772 141.102 112.154 140.723 112.382 140.25L114.162 136.551L129.31 139.935C129.638 140.008 129.978 140.008 130.306 139.935C130.633 139.862 130.941 139.718 131.207 139.513C131.473 139.308 131.691 139.047 131.846 138.749C132 138.45 132.087 138.122 132.1 137.786L133.511 101.055L143.15 88.1645L143.177 87.8393L142.377 86.8831Z" fill="black"/>
<path d="M45.7703 73.8904L42.3419 132.635C42.3102 133.179 42.4729 133.716 42.8009 134.151C43.1289 134.585 43.6007 134.889 44.132 135.007L135.18 155.238C135.5 155.308 135.83 155.309 136.15 155.241C136.469 155.172 136.771 155.036 137.033 154.842C137.296 154.647 137.514 154.399 137.673 154.113C137.832 153.828 137.928 153.511 137.955 153.185L143.291 87.972L92.7692 112.766L45.7703 73.8904Z" fill="#DCDFED"/>
<path opacity="0.1" d="M42.9688 133.98L90.2696 104.78C90.97 104.355 91.798 104.191 92.6073 104.318C93.4165 104.445 94.155 104.854 94.6921 105.473L137.028 154.878C137.182 155.055 137.257 154.928 137.028 154.878L42.9688 133.98C42.6996 133.92 42.7342 134.121 42.9688 133.98Z" fill="black"/>
<path d="M43.3072 133.932L90.1196 105.636C90.8597 105.189 91.7337 105.017 92.5878 105.152C93.4419 105.286 94.2211 105.718 94.7882 106.371L136.742 154.649C136.811 154.73 136.854 154.83 136.863 154.936C136.872 155.042 136.848 155.148 136.794 155.239C136.74 155.33 136.658 155.402 136.561 155.444C136.463 155.487 136.355 155.497 136.251 155.475L43.4591 134.857C43.3603 134.836 43.2702 134.785 43.2005 134.712C43.1308 134.639 43.0848 134.546 43.0684 134.446C43.052 134.347 43.0661 134.244 43.1086 134.152C43.1512 134.061 43.2204 133.984 43.3072 133.932Z" fill="#E3E5F1"/>
</g>
<defs>
<linearGradient id="paint0_linear_2:3236" x1="161.892" y1="154.384" x2="161.892" y2="35.1799" gradientUnits="userSpaceOnUse">
<stop stop-color="#808080" stop-opacity="0.25"/>
<stop offset="0.54" stop-color="#808080" stop-opacity="0.12"/>
<stop offset="1" stop-color="#808080" stop-opacity="0.1"/>
</linearGradient>
<clipPath id="clip0_2:3236">
<rect width="199" height="160" fill="white"/>
</clipPath>
</defs>
</svg>
